<svg xmlns="http://www.w3.org/2000/svg" xmlns:xlink="http://www.w3.org/1999/xlink" width="500.037" height="500" viewBox="0 -125.418 2197 2196.837">
  <defs>
    <style>
      .cls-1 {
        fill: #f1c182;
      }

      .cls-1, .cls-10, .cls-2, .cls-3, .cls-4, .cls-5, .cls-6, .cls-7, .cls-8, .cls-9 {
        fill-rule: evenodd;
      }

      .cls-2 {
        fill: #f9f1d9;
      }

      .cls-3 {
        fill: #d3b47e;
      }

      .cls-4 {
        fill: #c09b61;
      }

      .cls-5 {
        fill: #fff;
      }

      .cls-6 {
        fill: #f0b9af;
      }

      .cls-7 {
        fill: #faf181;
      }

      .cls-8 {
        fill: #aa7f4d;
      }

      .cls-9 {
        fill: #7dd6e9;
      }

      .cls-10, .cls-9 {
        opacity: 0.6;
      }

      .cls-10 {
        fill: #c8e1ea;
      }
    </style>
    <clipPath id="clip-path">
      <rect width="2197" height="1946"/>
    </clipPath>
  </defs>
  <g clip-path="url(#clip-path)">
    <path id="形狀_55" data-name="形狀 55" class="cls-1" d="M1815,1304m-370-129c11.96,3.67,22.45,9.4,35,8-12.27,21.19-32,37.24-34,69,9.07,15.74,73.59,44.37,94,52q15.495,3.495,31,7c-2.39,3.63-5.54,8.29-3,14,2.61,5.88,6.73,6.49,13,6q18-24.495,36-49c43.94,20.67,72.13,59.33,92,104q6.495,14.505,13,29c1.52,31.24-49.86,87.71-69,103-88.81,70.94-182.05,193.46-313.54,180.84-32.73-3.14-68.68-4.44-100.46,1.16-11.85,2.09-25.09,1.26-45-3-13.46-.53-43-3-53-7-66.41-9.25-120.05-19.48-156-62-124.68-171.57-56.665-228.34-41-315,3.71-18.59,63.56-43.91,104-43l16-13c6-7.97,8.85-20.39,17-26,6.53-4.5,17.45-8.7,28-8q6,0.495,12,1c4.71-1.81,6.41-8.32,12-11,25.29,4.17,54.73,12.99,81,21-10.1,72.42,66.69,108.96,136.06,81.69,45.36-17.83,57.65-44.03,44.94-100.69C1424.9,1215.16,1436.92,1197.08,1445,1175Zm-339,76h0Zm-31,6q0.495,10.5,1,21Q1075.505,1267.5,1075,1257Zm439,68,2,2Zm-441,1c0.33,2.67.67,5.33,1,8C1073.67,1331.33,1073.33,1328.67,1073,1326Zm444,2,2,2Zm-33,3,2,2Zm121,40c-0.33.67-.67,1.33-1,2C1604.33,1372.33,1604.67,1371.67,1605,1371Zm-534,8q0.495,7.5,1,15Q1071.505,1386.5,1071,1379Zm6,45h0Zm38,185c0.33,3,.67,6,1,9C1115.67,1615,1115.33,1612,1115,1609Zm283,7c1.33,0.33,2.67.67,4,1C1400.67,1616.67,1399.33,1616.33,1398,1616Z"/>
    <path id="形狀_54" data-name="形狀 54" class="cls-1" d="M1954,291c133.84-1.977,249.31,126.2,218,275-7.49,35.6-20.85,74.789-37,102-7.33,11.665-61.67,86.335-69,98-0.33-.667-197.67,194.667-198,194-157.07,148.29-426.67,164.33-433,148-17.86-31.27-94.24-161.375-120-217-3.26-7.029,212.58-18.381,278-35,57.09-14.5,126.94-17.517,112-226-2.3-32.076,30.58-48.163,120-261,0.67-1,8.33,0,9-1,13.19-31.836,53.41-58.313,87-70Z"/>
    <path id="形狀_57" data-name="形狀 57" class="cls-2" d="M2047,912,1837,392c34.95-.256,51.42,23.315,71,39,61.72,49.452,104.89,123.914,146,194,8.34,14.216,44.51,68.879,34,96q-21,26.5-42,53c-32.03,40.772-69.82,86.692-112,117h-1c-5.44-98.1-67.28-241.535-125-287-18.75-14.77-38.93-20.084-62-32,23.94-55.516,40.92-116.344,67-169C1824.04,403.864,1829.23,397.439,1837,392Z"/>
    <path id="形狀_56" data-name="形狀 56" class="cls-2" d="M1667,833c57.82,0.422,78.02,87.5,94,133,4.38,12.482,20.1,43.12,17,53q-18.495,11.505-37,23c-28.03,16.49-60.18,25.43-95,35-10.62,2.92-42.6,15.36-53,8-18.07-8.06-15.43-34.63-21-55-14.18-51.886-32.11-100.007-54-144,0.33-.333.67-0.667,1-1C1567.16,885.018,1645.26,859.542,1667,833Z"/>
    <path id="形狀_53" data-name="形狀 53" class="cls-1" d="M1219,152c82.67-1.424,178.63,9.33,228,42q-11.505,10-23,20c0.15,20.228,20.29,40.156,29,55,24.73,42.167,43.38,93.95,82,122,24.38,17.712,57.07,11.746,73-10,0.67,0.333,1.33.667,2,1q9,26,18,52c21.83,68.671,46.99,131.2,64,203,12.04,50.83,8.23,118.929-15,154-19.58,29.556-50.3,45.22-87,58-36.06,12.557-79.15,18.442-119,22-38.5,42-215.71-1.1-370-28-193.177-43.934-287.319-66.646-351-185-13.659-7.98-23.4-33.855-29-50-25.643-73.992,20.752-127.255,51-165,51.421-64.165,110.029-131.42,174-183,33.035-26.636,62.33-60.05,104-78,34.42-14.827,85.63-17.713,119-26ZM0,0H0ZM979,463q-0.5,1-1,2l2-2h-1Zm383,45c-0.33.667-.67,1.333-1,2,0.67-.667,1.33-1.333,2-2h-1Zm-3,3c-0.33.667-.67,1.333-1,2,0.67-.667,1.33-1.333,2-2h-1Z"/>
    <path id="形狀_52" data-name="形狀 52" class="cls-3" d="M1917,1419m-197-6c13.19,11.32,15.52,45.62,20,65,24.07,104.08-25.8,181.54-72,239-49.54,61.61-128.16,94.35-221,113-27.99,5.62-56.01,2.14-87,7-52.01,8.16-114.55-1.65-154-14-88.25-27.62-172.32-107.75-213-183v-1c15.42,2.8,38.05,17.73,59,23l81,15,33,3c13.11,4.04,27.6,17.28,49,13,8.34-1.67,12.28-7.62,18-10q18-.495,36-1l63-9c61.63-15.7,138.47-46.49,189-76,28.09-16.4,54.98-40.47,81-55C1643.77,1518.67,1711.57,1467.01,1720,1413Z"/>
    <path id="形狀_51" data-name="形狀 51" class="cls-3" d="M1722,1153m-775,16c-37.326-61.29-29.88-114.73-21-159,0,16.89,14.525-65.119,12-57,13.878-47.793,44.692-75.455,22-111v-1c8.157-2.024,5.352-6.232,10-9l93,26,134,24,103,12c16.76,11.563,28.19,41.364,39,59,27.52,44.885,53.95,90.27,73,144,6.4,18.07,18,45.52,12,71-6.2,26.36-26.22,18.22-36,34-5.85-3.49-8.68-2.46-15,0q-1.995,4.995-4,10c-19.34-9.46-85.1-8.78-112-3-14.13,3.04-21.17,12.25-36,13-4.97-14.43-31.52-15.69-47-18C1087.59,1191.13,1045.14,1203.96,947,1169Zm249-176v0Zm-102,41c0.67,0.33,1.33.67,2,1C1095.33,1034.67,1094.67,1034.33,1094,1034Zm-26,72v0Z"/>
    <path id="形狀_50" data-name="形狀 50" class="cls-4" d="M1665,1523c22.3-.58,39.57,9.9,45,26-5.36-1.55-8.25-.23-12,2-3.76,14.49-7.99,28.17-15,39h-3c-5.09-7.9-24.88-58.61-30-60,0.33-.67.67-1.33,1-2Q1658.005,1525.5,1665,1523Z"/>
    <path id="形狀_49" data-name="形狀 49" class="cls-4" d="M1185,1732c3.23,2.27,2.34,5.57,5,8,4.52,4.13,18.33.93,25,2,4.37,3.17,6.5,5.73,7,13-8.46,17.6-23.14,8.96-44,12-6.26.91-4.36,4.19-10,2C1161.66,1748.98,1172.31,1741.32,1185,1732Z"/>
    <path id="形狀_48" data-name="形狀 48" class="cls-4" d="M1308,1205c20.34-.49,49.45-3.02,61,6,5.93,5.38,7.72,16,10,25,12.46,49.16-41.05,85.52-92,74-27.56-6.23-45.79-22.27-52-50-3.26-14.55,1.85-29.62-7-38,1.33-1.67,2.67-3.33,4-5q12.495-4.5,25-9Z"/>
    <path id="形狀_47" data-name="形狀 47" class="cls-4" d="M970,1161c25.5-.1,46.43,3.71,70,7-2.55,7.96,68.24,25.75,67,36,9.33,13.31-74.27,34.81-80,52-36.607,6.18-101.084-4.44-91-47,3.209-13.54.684-19.05,7-29,2.046-3.22,3.42-14.39,6-17C952.666,1161.33,966.334,1162.67,970,1161Z"/>
    <path id="形狀_46" data-name="形狀 46" class="cls-4" d="M1085,935c12.13,2.2,34.99.754,50,5,19.92,5.636,33.61,20.234,49,31,7.83,5.477,22.94,26.075,9,37,3.92-17.893-15.92-13.6-28-10-50.13,14.94-102.16,30.27-149,3-8.49-29.051,19.3-42.867,45-47,13.26-2.133,19.61,3.912,29-2,0.33-2.666.67-5.334,1-8Z"/>
    <path id="形狀_45" data-name="形狀 45" class="cls-4" d="M925,836c15.24-.2,24.983,2.782,37,4,0.921,5.756,6.648,7.428,10,13,9.224,15.335,2.7,41.2-3,56-44.135,2.788-71.139,52.188-131,33-9.458-3.032-18.918-5.923-23-14-8.1-16.027,6.759-34.008,14-42,17.729-19.567,41.446-34.412,69-44Z"/>
    <path id="形狀_40" data-name="形狀 40" class="cls-5" d="M1145,1584c18.12,0.33,84.11,58.52,75,81-0.67,1.33-1.33,2.67-2,4C1172.61,1682.5,1114.4,1628.54,1145,1584Z"/>
    <path id="形狀_39" data-name="形狀 39" class="cls-5" d="M1631,1390c50.17,6.29,30.41,108.76-1,99h-4c16.7-42.23-33.72-55.8-30-91C1608.27,1394.21,1615.8,1373.29,1631,1390Z"/>
    <path id="形狀_38" data-name="形狀 38" class="cls-5" d="M1448,1459c42.23-.88,107.77,3.01,102,46-7.4,55.09-94.62,104.13-158,87h-29c-20.63-3.38-44.12-4.81-56-17-17.06-17.51,3.96-42.61,13-53,21.52-24.72,52.13-43.98,87-55Q1427.505,1463,1448,1459Z"/>
    <path id="形狀_37" data-name="形狀 37" class="cls-5" d="M1460,1349q6,0.495,12,1c-0.67.33-1.33,0.67-2,1-11.73,12.12-31.12,20.36-47,28C1429.27,1359.66,1442.16,1357.12,1460,1349Z"/>
    <path id="形狀_36" data-name="形狀 36" class="cls-5" d="M1286,1408h7v1c-9.25,22.61-38.68,26.17-70,26v-1l2-2C1235.24,1411.15,1263.32,1417.09,1286,1408Z"/>
    <path id="形狀_35" data-name="形狀 35" class="cls-5" d="M1294,392l16,1c-0.67.333-1.33,0.667-2,1-8.8,5.7-29.45,14.022-42,11v-3C1274.26,397.206,1283.84,396.474,1294,392Z"/>
    <path id="形狀_34" data-name="形狀 34" class="cls-5" d="M1011,335c15.72,3.689,34.55,11.643,43,23C1035.31,363.947,1017.24,350,1011,335Z"/>
    <path id="形狀_33" data-name="形狀 33" class="cls-5" d="M1615,1258c-21.22,4.93-19.72,19.53-30,29-26.05,15.3-99.78-30.37-114-42,10.03-51.78,42.89-92.97,70-94C1576.91,1149.64,1617.08,1207.33,1615,1258Z"/>
    <path id="形狀_32" data-name="形狀 32" class="cls-5" d="M1096,1273c34.04-1.17,100.06,8.53,94,44-5.38,31.47-70.57,67.53-98,81C1093.28,1355.86,1094.82,1366.61,1096,1273Z"/>
    <path id="形狀_31" data-name="形狀 31" class="cls-5" d="M1072,29q7.5,22.5,15,45c10.99,25.967,27.15,46.27,43,67h-2l-35,6c-23.39,5.572-47.37,12.062-66,23-50.036,29.376-85.472,72.182-130,106v-2c-14.376-30.07,1.882-76.406,11-97,23.933-54.053,72.082-92.879,120-123Q1050.005,41.5,1072,29Z"/>
    <path id="形狀_30" data-name="形狀 30" class="cls-5" d="M1571,119c9.56,8.99,3.77,65.221,8,82,7.65,30.373,32.48,47.451,41,76,10.48,35.116-20.62,96.153-43,104-18.9,6.629-32.83-8.807-41-17-27.46-27.532-44.49-66.632-64-102-6.62-12-26.22-35.681-20-46Q1511.49,167.505,1571,119Z"/>
    <path id="形狀_29" data-name="形狀 29" class="cls-5" d="M827,475c4.526,0.859,2.975-.116,5,3,17.38,31.023-5.745,101.5-1,141-9.076,1.817-58.567,24.168-59,24-4.726-1.835-10.159-47.043-8-60C772.558,531.637,790.914,498.41,827,475Z"/>
    <path id="形狀_28" data-name="形狀 28" class="cls-5" d="M1450,576c13.38-.162,23.95.062,32,5,22.42,13.754,58.73,92.373,50,137-6.24,31.915-18.75,59.465-33,84-12.09,20.808-45.1,65.218-69,72-13.51,3.834-107.07,1.43-118-2q-4.005-3-8-6c-10.33-2.92-15.34,6.358-28,4l-48-6v-1c7.59-12.108,50.06-27.739,64-37,39.78-26.422,78.01-62,101-105C1420.49,669.6,1396.38,605.573,1450,576Z"/>
    <path id="形狀_27" data-name="形狀 27" class="cls-5" d="M923,546c17.816-41.923,102.8-56.5,168-46,103.18,16.619,208.79,28.211,231,124,7.87,33.931-10.78,59.07-24,76-37.74,48.321-99.13,69.407-173,82-45.32,7.726-136.4-13.737-142-43C884.1,649.516,903.586,591.682,923,546Zm166-17,4,1Zm-80,24q-2.5,3.5-5,7h1v-2C1006.33,556.333,1007.67,554.667,1009,553Zm138,3c0.67,0.667,1.33,1.333,2,2C1148.33,557.333,1147.67,556.667,1147,556Zm-123,3v0Zm-21,2c0.33,2,.67,4,1,6C1003.67,565,1003.33,563,1003,561Zm-9,26,4,1Zm-21,2,3,1Zm250,22c-0.33.667-.67,1.333-1,2,0.67-.667,1.33-1.333,2-2h-1Zm15,6c0.33,2,.67,4,1,6C1238.67,621,1238.33,619,1238,617Zm-44,14c0.67,0.333,1.33.667,2,1C1195.33,631.667,1194.67,631.333,1194,631Z"/>
    <path id="形狀_26" data-name="形狀 26" class="cls-6" d="M1124,630l9,5c-2.87,19.763,4.6,53.542-11,63C1127.61,678.7,1126.13,651.33,1124,630Z"/>
    <path id="形狀_25" data-name="形狀 25" class="cls-7" d="M776,1190v460c0,42.53,7.8,161.58-6,188q-7,2.505-14,5c-36.131,12.16-77.289,5.45-103-11,0.667-3.33,1.333-6.67,2-10-3-.33-6-0.67-9-1q0.5-304.47,1-609,9.5-.495,19-1,0.5-1.5,1-3l1-10C706.109,1198.29,740.542,1191.28,776,1190Z"/>
    <path id="形狀_21" data-name="形狀 21" class="cls-8" d="M1649,1529c1.67,0.33,3.33.67,5,1,1.41,0.84,22.62,52.2,27,59,1-.67,2-1.33,3-2,3.84-11.17,8.58-39.57,24-40,20.03,12.18-7.73,70.45-30,65-14.61-3.58-48.03-54.03-39-75C1641.47,1531.74,1644.1,1531.71,1649,1529Z"/>
    <path id="形狀_44" data-name="形狀 44" class="cls-4" d="M1521,1200c11.03,6.09,19.72,23.23,22,38-0.67.33-1.33,0.67-2,1q-16.005-4.005-32-8v-4Z"/>
    <path id="形狀_43" data-name="形狀 43" class="cls-4" d="M1120,1312c8.69,4.34,14.24,9.49,14,23-4.17,8.5-9.6,12.67-20,15Q1117,1331,1120,1312Z"/>
    <path id="形狀_42" data-name="形狀 42" class="cls-4" d="M1692,250m-156-44c17.17,12.352,19.77,74.922,6,94-11.32-8.339-46.97-55.73-31-79C1515.95,213.789,1529.27,213.912,1536,206Z"/>
    <path id="形狀_41" data-name="形狀 41" class="cls-4" d="M1005,111c16.35-.4,45.22,15.905,46,33l-6,8c-2.33.667-4.67,1.333-7,2q-4.995-3.5-10-7c-23.8,8.829-38.161,36.688-68,39-4.964-2.47-6.488-4.081-9-9,2.636-12.733,6.607-10.877,5-24C969.888,137.068,989.813,125.7,1005,111Z"/>
    <path id="形狀_20" data-name="形狀 20" class="cls-8" d="M1201,1720c32.02-1.17,54.49,26.78,35,53-10.46,14.07-39.36,18.55-63,13-1.33-1.67-2.67-3.33-4-5,0.33-3.67.67-7.33,1-11,1.67-1.33,3.33-2.67,5-4,20.86,0.87,49.24,3.82,45-17q-3.495-3-7-6c-6.5-1.44-16.87,1.76-22-2-3.29-2.22-3.48-4.01-5-8q2.505-4.995,5-10Z"/>
    <path id="形狀_19" data-name="形狀 19" class="cls-8" d="M1610,1368c41.8-1.13,61.52,17.71,70,49,13.59,50.18-27.04,119.8-76,90-4.11-15.19,7.66-27.04,4-40-5.46-19.33-49.3-54.86-31-82C1582.67,1376.59,1601.36,1373.21,1610,1368Zm21,22q-3,4.005-6,8c-10-.59-24.24-5.2-29,2-6.75,27.89,46.26,46.22,30,89,1.33,0.33,2.67.67,4,1C1671.38,1485.83,1668.15,1397.35,1631,1390Z"/>
    <path id="形狀_18" data-name="形狀 18" class="cls-8" d="M1139,1562c34.78-.85,85.12,48.06,97,71,8.03,15.5,10.15,43.35-4,54-18.58,13.98-48,3.09-64-5-9.91-5.01-18.81-7.63-27-14C1108.81,1642.98,1104.51,1588.25,1139,1562Zm6,22c-33.08,48.12,39.88,103.87,75,83,0.33-.67.67-1.33,1-2C1221.19,1637.92,1167.98,1584.56,1145,1584Z"/>
    <path id="形狀_17" data-name="形狀 17" class="cls-8" d="M1428,1480c2,0.33,4,.67,6,1,12.97,11.01-4.79,27.32,7,37,23.65-.13,20.93-17.13,40-19,4.07,1.96,6,2.85,8,7,0.33,1.67.67,3.33,1,5-10.06,11.65-21.91,30.24-44,29-7.19-.4-18.16-7.84-23-7-8.44,8.38-22.75,32.37-42,25-2-1.67-4-3.33-6-5,0.33-3,.67-6,1-9,4.67-8,24.08-12.97,33-27-4.06-5.73-13.12-10.24-16-16C1383.57,1482.14,1417.88,1483.91,1428,1480Z"/>
    <path id="形狀_16" data-name="形狀 16" class="cls-8" d="M1444,1438c63.06-1.19,146.19,7.58,126,80-16.88,60.56-70.03,81.8-135,95-19.66,4-47.06,6.88-64,0q-13.005-1.005-26-2c-23.39-4.66-49.09-11.71-61-28-16.2-22.16,1.7-51.93,12-66,24.44-33.4,62.18-57.32,106-71Q1423,1442,1444,1438Zm5,21-35,6c-36.49,10.88-71.79,29.44-93,56-7.62,9.55-29.89,30.82-17,50,17.84,26.54,53.61,12.45,88,21,61.53,15.29,146.13-29.59,157-80C1559.99,1461.03,1495.27,1458.23,1449,1459Z"/>
    <path id="形狀_15" data-name="形狀 15" class="cls-8" d="M1490,1387c11.18-.8,23.99.36,22,12-2.22,13-40.94,30.84-48,14-0.33-1.67-.67-3.33-1-5C1470.83,1398.8,1480.2,1394.26,1490,1387Z"/>
    <path id="形狀_14" data-name="形狀 14" class="cls-8" d="M1248,1480c2.33,0.33,4.67.67,7,1,6.48,4.7,6.85,10.36,6,18-5.74,8.5-41.22,29.65-50,15-1.91-2.87-2.15-6.65-2-12C1216.14,1489.38,1237.11,1488.81,1248,1480Z"/>
    <path id="形狀_13" data-name="形狀 13" class="cls-8" d="M1506,1324c2.67,0.33,5.33.67,8,1,4.99,2.23,6.66,5.07,7,12-13.24,18.92-88.61,77.23-119,59-12.25-33.78,27.94-62.73,56-68,16.86-3.17,31.8,8.3,34,7Zm-46,25c-17.84,8-30.79,10.74-37,30,16.21-7.3,38.92-17.11,50-30h-13Z"/>
    <path id="形狀_12" data-name="形狀 12" class="cls-8" d="M1298,1386c3.67,0.33,7.33.67,11,1l6,6c1.1,61.95-31.62,51.7-83,60-10.45,1.69-24.41,10.58-34,7q-3.495-3-7-6c0.33-2.67.67-5.33,1-8,16.28-29.79,32.73-47.67,71-56Q1280.505,1388.005,1298,1386Zm-12,22c-26.35,9.91-49.19,4.38-63,26v1c29.1,0.61,65.04-2.96,70-27h-7Z"/>
    <path id="形狀_11" data-name="形狀 11" class="cls-8" d="M1107,1289c66.3-2.22,56.96,95.19-8,82-1.67-2-3.33-4-5-6C1088.17,1344.77,1098.15,1301.54,1107,1289Zm14,25c-1.55,9.37-7.57,24.66-4,34,9.17-3.36,15.92-7.37,16-20A30.956,30.956,0,0,0,1121,1314Z"/>
    <path id="形狀_10" data-name="形狀 10" class="cls-8" d="M1082,1248c52.52,0.88,119.95,10.46,131,58,10.09,43.42-70.32,87.66-96,102-7.79,4.35-26.93,22.51-40,18-8.48-2.92-9.02-23.4-7-36C1074.6,1361.28,1066.39,1260.07,1082,1248Zm14,25q-1.995,62.49-4,125c26.65-12.86,94.32-50.69,98-82C1194.1,1281.11,1130.64,1271.83,1096,1273Z"/>
    <path id="形狀_9" data-name="形狀 9" class="cls-8" d="M1292,474c29.47-.083,57.41,10.4,72,26q-1.005,5.5-2,11c-17.01,8-37.38-13.6-58-15-7.89-.535-8.52,7.859-17,5-1.67-1.333-3.33-2.667-5-4-0.33-.333-0.67-0.667-1-1C1277.23,481.958,1281.53,479.249,1292,474Z"/>
    <path id="形狀_8" data-name="形狀 8" class="cls-8" d="M1298,445c34.14-.889,54.21,6.031,70,23,0.21,10.257-2.38,12.751-9,16-12.97-2.891-18.22-14.021-33-17-14.2-2.862-28.91,4.7-37,3-3.6-1.372-3.17-.9-5-4-2.31-2.557-2.71-4.054-3-9,1.33-2.333,2.67-4.667,4-7Z"/>
    <path id="形狀_7" data-name="形狀 7" class="cls-8" d="M937,402c22.872,0.116,40.819,6.172,55,15q1,3,2,6c-1.587,4.233-2.226,6.818-6,9-9.483,5.619-24.48-6.03-35-8-17.364-3.252-31.747,3.975-43,6l-7-1-4-2q-1-5-2-10l4-7Z"/>
    <path id="形狀_6" data-name="形狀 6" class="cls-8" d="M926,431c25.918-.631,45.691,6.832,58,20v6l-7,9c-12.575-1.105-18.33-9.333-30-12-19.856-4.537-32,4.9-46,7-10.235-6.4-10.355-11.927-3-21C905.931,437.077,916.833,435.03,926,431Z"/>
    <path id="形狀_5" data-name="形狀 5" class="cls-8" d="M1301,371c25.44,0.507,67.23,3.158,81,17-0.33,3-.67,6-1,9l-6,6c-15.72-.436-28.85-2.9-43,2-27.12,9.394-52.42,28.693-92,19-1.33-1.666-2.67-3.334-4-5C1236.07,375.97,1269.77,382.547,1301,371Zm-8,21c-12.75,5.026-22.59,4.069-30,14,21.03,0.324,33.62-7.763,49-13v-1h-19Z"/>
    <path id="形狀_4" data-name="形狀 4" class="cls-8" d="M960,306c33.232-.482,128.64,21.508,115,59-4.82,13.237-27.16,21.23-45,15-20.56-7.18-31.138-29.651-47-42-8.393-6.534-20.587-9.466-28-17q0.5-4.5,1-9Zm49,28c6.53,9.557,26.69,35.2,43,24h2c-1.67-2-3.33-4-5-6C1036.15,346.955,1023.24,339.729,1009,334Z"/>
    <path id="形狀_3" data-name="形狀 3" class="cls-8" d="M1792,159m-257,17c1.67,0.333,3.33.667,5,1,29.43,14.515,45.76,131.156,9,149l-6,1c-15.38-10.884-30.05-22.817-40-39-20.34-33.088-21.48-90.81,24-98C1527.25,181.064,1529.83,179.721,1535,176Zm1,32c-8.1,6.812-17.82,4.756-24,15-13.4,22.214,18.39,66.275,30,75C1549.13,272.728,1554.34,226.584,1536,208Z"/>
    <path id="形狀_2" data-name="形狀 2" class="cls-8" d="M1017,91c12.09,2.4,55.01,43.031,41,59-5.13,5.849-108.785,59.878-119,60-13.235-9.083-.615-29.81,5-41C962.305,132.521,976.161,105.916,1017,91Zm-8,17c-10,9.529-24.48,25.651-30,34-0.511.773-22.376,37.706-23,41l9,2c11.463-7.317,55.32-37.575,65-39C1035.29,143.155,1058.04,137.479,1009,108Z"/>
    <path id="形狀_1" data-name="形狀 1" class="cls-8" d="M646,938c-0.911-83.239-.494-157.651,30-208,15.9-26.254,39.618-41.374,58-64-11.918-12.913-23.58-25.45-31-43-17.045-40.315-8.574-98.326,8-132,40.058-81.386,115.813-129.1,168-198-3.116-18.166-11.741-40.333-8-64,14.551-92.058,70.2-141.494,134-184,9.94-6.624,67.03-47.158,80-43,10.53,3.377,11,34.63,15,45,12.18,31.581,31.75,70.87,57,90,73.45-10.424,165.08-7.7,228,11,27.94,8.3,54.49,23.754,81,30,21.37-27.357,57.57-48.5,85-70,5.19-4.064,21.36-23.05,32-16,20.28,13.441,11.72,91.9,23,118,13.43,31.076,48.35,55.566,36,106-4.06,16.588-12.55,29.735-18,44q27.99,83.491,56,167c8.73,22.548,19.58,47.252,24,73,1.67-1.333,3.33-2.667,5-4,6.09-14.476,16.74-28.207,23-44,37.37-94.312,61.17-198.566,138-253a163.5,163.5,0,0,1,49-23c145.42-41.022,243.64,88.07,267,194,27.42,124.325-55.07,228.267-104,293-54.67,72.324-119.6,137.406-191,193-41.75,32.5-80.79,68.75-127,97-80.78,49.37-191.19,65.2-322,65q3.495,18,7,36c12.6,5.34,24.65,6.66,35,13v11c17.02-12.93,26.08-33.23,47-42,54.04,7.12,98.74,61.97,94,126,113.22,53.34,188.54,263.97,107,402-49.31,83.48-122.16,142.9-224,174-194.48,59.4-380.14,8.67-473-107-17.81-22.18-43.621-43.09-55-71h-1q-16.5,78.99-33,158c-8.32,35.93-1.728,55.44-27,75-41.287,31.96-105.545,32.51-169,43-60.857,10.06-127.924,2.17-196,8-86.288,7.39-183.358.55-254-16-50.993-11.95-99.282-25.28-125-62-9.654-13.78-6.294-36.94-11-56q-15.5-61.5-31-123c-36.313-142.73-62.335-291.32-94-443-11.325-54.25-15.535-113.76-30-163-4.761-16.21,2.509-33.2,9-42,28.273-38.31,89.739-50.647,142-65C291.23,937.959,479.618,927.225,646,938ZM1072,29l-45,26C955.636,99.887,884.293,158.893,897,276l42-40c55.719-44.788,99.4-82.51,190-95-0.67-.667-1.33-1.333-2-2-8.49-18.383-26.2-33.245-35-53Q1081.995,57.5,1072,29Zm499,90q-61.5,50.495-123,101c23.28,44.849,49.29,93.58,79,133,8.81,11.695,25.89,35.308,49,28,23.01-7.278,53.67-68.551,44-103-8.08-28.8-32.76-45.954-41-76C1574.35,185.036,1580.67,128.524,1571,119Zm-356,34-47,4q-4.005,3-8,6c-8.17,1.956-10.69-3.74-20-2-33.75,6.311-66.42,11.889-94,24-42.77,18.78-72.759,55.42-107,83-33.428,26.925-66.087,60.561-93,94l-76,83c-31.635,39.79-78.291,105.7-43,175,5.363,10.531,12.107,25.327,24,29v-1c-25.061-64.113,6.781-138.483,38-170,9.028-9.114,25.128-31.785,48-25,35.3,10.473,15.7,117.054,15,158h1l48-12c-2.18-17.945-7.2-42.451,0-60,20.84-50.766,124.01-72.148,205-59,106.58,17.3,204.37,33.967,233,128,15.14,49.723-8.26,92.233-32,116-69.31,69.395-256.53,122.4-344,30-0.049-6.431.9-8.409,3-12-36.8,4.3-66.552,15.941-96,26q0.5,1,1,2l70,30c51.389,19.908,106.33,30.073,165,43l82,14c4.58-10.244,22.65-12.5,33-17a390.609,390.609,0,0,0,68-38c37.47-26.5,74.06-62.3,92-108,20.96-53.38-1-101.59,48-131,9.09-5.454,23.72-12.321,41-9,51.93,9.982,97.85,108.429,80,180-15,60.131-46.09,94.632-78,136,79.64-5.876,169.27-24.563,205-81,21.35-33.715,26.61-98.64,15-148-21.41-91.043-59.29-170.467-83-258-80.88,61.972-123.53-55.582-154-108-9.51-16.366-31.18-38.478-32-60,4.56-8.309,14.15-15,22-20-0.33-.667-0.67-1.333-1-2q-35.49-12.5-71-25C1327.1,154.278,1274.03,153.186,1215,153Zm738,139-40,10c-33.08,13.4-61.11,38.194-79,67,51.15-.332,83.89,34.332,107,63,42.27,52.436,86.18,102.109,122,162q17.505,33.5,35,67,4.995,15,10,30v-2c45.21-43.554,75.49-160.3,49-245C2130.02,357.753,2066.87,291.308,1953,292ZM1839,392c-9.38,5.521-14.91,10.816-26,12q-13.995,32-28,64Q1766,519.5,1747,571l28,11c21.73,10.938,43.49,27.7,58,46,54.99,69.332,79.45,157.735,101,262q18-17,36-34c30.01-30.007,58.9-59.969,85-94q16.995-22,34-44c6.32-27.994-25.55-74.752-35-92-38.49-70.245-83.67-132.7-138-187C1897.91,420.923,1873,392.443,1839,392ZM828,475c-46.342,29.69-78.265,94.8-56,168,17.907-8.481,36.71-19.809,58-24q3-51,6-102C836.022,501.945,837.7,480.553,828,475Zm212,24-37,3c-54.055,10.333-91.328,28.738-80,93l2,1c26.432-7.605,60.05-9.792,91-10v-1l-9-9c-1.99-5.125-3.73-7.342-4-15,1.96-4.066,2.85-6,7-8h9c5.71,4.361,6.36,12.782,12,17,9.15,6.844,42.43,12.7,56,13-5.74-12.908-9.77-36.934-5-51,23.43-11.517,66.28,11.419,68,32-6.9,13.1-27.3,22.1-31,32,32.22,27.859,65.58,55.415,105,14,8.91-.123,10.85,1.793,15,6-0.48,35.5-53.98,42.758-85,30,1.65,77.424-22.82,89.645-101,88l-72,6c26.79,35.879,101.8,51.827,164,39,79.97-16.491,164.94-51.113,178-134,4.88-31-15.78-54.346-28-70C1249.05,516.143,1143.82,498.788,1040,499Zm414,76c-59.67,32.084-32.2,81.061-58,140-26.26,59.991-107.2,126.723-173,147v1l60,7c9.74,1.168,10.71-8.183,21-5q3.495,3.5,7,7c7.39,3.239,110.31,3.979,120,1,32.32-9.934,56.87-53.7,73-81a216.482,216.482,0,0,0,27-72C1541.19,663.079,1500.99,574.613,1454,575Zm283,18c-6.93,13.277-16.44,21.651-26,32,6.32,53.864,17.08,156.216-22,184v1c45.07,3.013,76.04,103.8,92,145q7.995,24,16,48,36-29,72-58c14.87-11.6,33.65-23,45-38-7.24-102.586-47.37-198-97-261C1799.14,623.327,1772.53,596.97,1737,593ZM668,939l108,8V852c10.5-19.492,19.1-46.137,27-61l21-19c42.96-33.364,91.962-41.568,158-55l117-6,6-45q-3-31-6-62h-13l-57,2L926,617c-117.9,24.639-216.773,61.126-250,170C663.583,827.687,667.824,887.277,668,939Zm457-307c1.28,15.092-3.39,53.222,0,63v-2c8.39-13.015,9.48-41.844,6-58ZM750,650l2,2C750.608,650.077,751.9,651.4,750,650Zm96,132c-23.346,24.972-37.733,39.753-46,82-1.363,6.966-4.135,21.169-1,29v-2c21.521-27.465,39.655-49.209,74-64l45-13C892.212,807.648,868.307,793.3,846,782Zm737,306c80.62,0.18,143.05-41.54,196-71-26.33-48.642-43.81-188.272-109-186-22.19,28.017-69.49,39.68-110,49l-41,7C1546.21,945.027,1576.63,1011.08,1583,1088ZM971,833c-1.245,4.047-1.612,5.059-5,7-12.725,4.455-30.369-5.321-47-2-30.653,6.122-114.733,46.549-104,82,1.674,11.308,7.334,13.762,16,18,40.22,19.671,83.082-6.779,111-21,7.151-3.643,18.422-11.137,28-8,5.21,2.356,7.378,11.76,3,17-5.053,7.036-16.065,6.041-22,12-3.451,3.465-14.763,30.1-16,36l58,17c-0.383-33.494,28.1-48.946,54-56,12.37-3.369,37.25-4.458,43,5,4.48,6.431.3,12.712-3,17-30.93-1.1-90.85,9.07-68,45q12.495,6.5,25,13c21.81,7.15,57.46-1.43,76-6,13.65-3.37,55.85-19.3,68-15,3.65,1.65,4.31,2.389,6,6v10c-10,11.35-66.84,20.08-86,24-8.79,1.8-23.33-.18-29,5-4.48,12.55,7.31,21.8,4,38-2.4,11.71-11.52,18.69-14,29l-9,69c47.52,3.72,75.97,17.4,118,29,19.55,5.4,46.47,6.98,56,22,8.06,22.05-.45,40.19,12,58,26.16,37.43,99.98,29.72,124-4,22.79-32-7.81-61.63,4-80,57.42-8.92,57.77-46.47,39-100-20.89-59.59-52.8-111.4-84-161q-15.495-23.5-31-47c-84.91-2.436-167.62-17.338-241-36Q1014.01,844.5,971,833Zm523,56-34,3c-40.32,6.184-81.8,2.087-132,2,39.53,64.818,77.8,125.2,108,202q39.495-.495,79-1,23.505-1.995,47-4-4.995-25.995-10-52a728.664,728.664,0,0,0-35-102C1510.92,922.812,1503.96,896,1494,889ZM798,941v9h10Zm117,15c-6.271,3.893-17.981,3.422-25,9l22,4C913.317,964.744,917.856,957.858,915,956ZM646,1170V968c-172.933-2.688-347.124-1.271-485,37-35.295,9.8-120.01,29.68-123,66,18.106,41.24,88.362,52.94,136,65C310.806,1170.62,477.371,1170.33,646,1170Zm22-201v200l108-9V978Zm130,12v176c42.205-1.39,82.11-14.45,120-21-4.123-23.6-10.654-48.46-15-76q0.5-30.99,1-62Zm129,23c-9.163,45.94,6.088,90.8,13,126h3c30.322-10.74,102.12-28.45,109-58,3.52-15.13-15.18-23.92-23-29C1001.13,1024.9,964.247,1012.22,927,1004ZM798,1819q-11-.495-22-1V1191q-53.994,4.005-108,8c4.806,412.8-.618,620.74,0,621,60.761,25.46,104.328-.97,107-1,44.147-.49,7.045,9.77-13,21-27.674,15.51-83.612,18.14-116-14V1200c-207.976,5.94-478.585-.59-605-81l30,176c29.317,134.24,49.122,263.94,84,390q15,59.49,30,119c5.713,28.11,1.822,47.59,20,62,47.492,37.64,117.7,41.89,192,54q31.5,1.005,63,2H636q57.5-4.005,115-8c42.836-7.42,144.878-13.88,159-43,21.837-45.02,25.849-122.46,39-176q6.5-33,13-66c-5.821-21.58-22-45.14-33.4-69.51-5.4-20.34-27.265-73.82-24.6-86.49,1,0,10.255-3.42,19-6,11.967,45.58,37.192,104.4,45,127,0.667-.33,1.333-0.67,2-1q7-36.99,14-74,11.5-68.49,23-137,8-51.99,16-104-11.5,1.005-23,2c-9.666,7.67-33.8,2.29-71,90-13.048,55.08-3,99-4,99-3-7-21,9-24,2,1.892-1.68-4.932-67.79,14-125,11.088-33.51,51.892-71.02,53-72-48.079-5.06-71.967-70.23-34-105q-0.5-1.5-1-3c-14.6-3.56-39.284,6.77-54,10l-81,12v631Zm245-696c-17.84,17.2-59.989,30.14-88,35,5.253,24.76-13.338,30.31-18,52-8.738,40.65,53.583,50.35,89,45q4.5-30.99,9-62c-1.42-4.17-4.44-5.49-5-13C1033.78,1173.33,1051.4,1133.59,1043,1123Zm488,37c-0.67,3-1.33,6-2,9,5.86,1.32,6.7,3.47,10,7-0.64,7.32-2.55,7.62-1,12,10.27,6.25,34.33,45.79,26,66-1.67,2-3.33,4-5,6-23.68.81-62.34-3.49-71-18-8.1-12.61,8.21-39.91,13-49-13.79,10.41-27.45,30.9-31,51,26.79,18.9,72.59,53.7,116,43q2.505-11.505,5-23c3-4.24,9.23-4.28,12-9,7.33-28.59-29.47-81.46-46-91C1549.66,1159.77,1539.21,1161.43,1531,1160Zm-318,74c-27.98-.47-63.46-12.39-85-23,0.56,6.77-2.44,9.81-7,14-38.11-.8-37.97,7.27-55,31q-9.495,8.505-19,17-21,127.485-42,255-9.5,49.995-19,100c8.8,27.52,51.04,67.69,69,90,60.31,74.93,143.82,118.99,280,119q42-1.995,84-4c159.46-28.19,262.89-88.98,314-224,36.73-97.04-11.24-208.38-52-269-14.16-21.06-35.85-49.99-64-56q-17.505,24-35,48c-7.69.37-11.33-.3-14-5-3.78-4.61-1.21-10.85,1-15-0.33-.67-0.67-1.33-1-2-38.17.3-97.3-36.1-122-54-2.94-30.37,18.69-53.56,32-72-11.04,1.81-21.57-5.25-33-8-5,29.85-23.81,30.84-49,41,34.61,75.76-51.25,135.83-125,110C1234.21,1314.11,1212.22,1284.98,1213,1234Zm-148-36q2.505,6.495,5,13,9.495-4.5,19-9Q1077,1200.005,1065,1198Zm457,4c-4.91,8.26-9.94,16.99-12,28q16.005,4.005,32,8v-1C1537.25,1222.42,1531.47,1211.62,1522,1202Z"/>
    <path id="形狀_22" data-name="形狀 22" class="cls-9" d="M776,1218c30.775-.56,72.467-2.31,96,7,9.421,3.73,17.72,5.12,26,7,5.386,1.23,14.3,7.38,21,11,21.665,11.71,31.953,45.64,48,76,2.206,96.46-17.723,169.67-38,242q-5,25.5-10,51c-3.062.02-1.4-.96-4,1,3.685,5.97-.307,29.4-4,39-3.062.02-1.4-.96-4,1,0.667,0.67,1.333,1.33,2,2,0.667-.33,1.333-0.67,2-1q-3.5,23.505-7,47c-3.832-1.14-1.571-1.97-5,0,0.667,0.67,1.333,1.33,2,2,4.773,3.47-9.8,46.14-13,54-16.072,39.49-36.641,71.33-61,91-5.534,4.47-12.469,2.71-16,5,1.11,2.83.865,1.45,1,4l-14,6c-0.024-3.06.962-1.4-1-4-0.667.67-1.333,1.33-2,2-1.055,5.26-13.112,8.79-21,10-0.024-3.06.962-1.4-1-4-0.667.67-1.333,1.33-2,2l2,3c-8.519,1.12-31.413,3.6-34,5,0.333,0.67.667,1.33,1,2-29.007,3.85-62.6,3.83-94,8-0.024-3.06.962-1.4-1-4-0.667.67-1.333,1.33-2,2v3q-38.5,3.495-77,7c-0.024-3.06.962-1.4-1-4-0.667.67-1.333,1.33-2,2l2,3H532c-5.939,1.56-11.939,7.53-23,5-13.946-3.19-27.562-5.96-47-6-0.024-3.06.962-1.4-1-4-0.667.67-1.333,1.33-2,2l2,3c-69.624.78-101.072-12.69-152-25-25.091-6.06-70.095-14.78-82-32-9.736-14.08-13.471-26.8-17-48q-0.5-13.995-1-28c-4.923-12.61-14.379-26.75-20-40l-18-70c-10.2-39.56-5.515-81.99-15-124-11.6-51.39-32.01-101.8-33-165-0.388-24.75-15.088-42.34-2-61,15.732-22.43,53.813-33.86,80-46,38.939-18.05,84.652-27.12,134-36q33-2.505,66-5h46c46.117,0,90.9,3.61,131-3q44-1.005,88-2c0.333-1-30.521,1.47,1-3C724.071,1212.52,746.545,1212.48,776,1218Zm150,29c0.333,0.67.667,1.33,1,2C926.667,1248.33,926.333,1247.67,926,1247Zm1,2a18.853,18.853,0,0,1,8,8h-1Q930.5,1252.995,927,1249Zm8,8c1.923,1.39.6,0.1,2,2C936.333,1258.33,935.667,1257.67,935,1257Zm-11,50v4h1c0.667-.67,1.333-1.33,2-2C926,1308.33,925,1307.67,924,1307Zm4,12c0.333,0.67.667,1.33,1,2C928.667,1320.33,928.333,1319.67,928,1319Zm-3,5c0.333,0.67.667,1.33,1,2C925.667,1325.33,925.333,1324.67,925,1324Zm-23,124v0Zm4,29c0.333,0.67.667,1.33,1,2C906.667,1478.33,906.333,1477.67,906,1477Zm1,6c0.333,0.67.667,1.33,1,2C907.667,1484.33,907.333,1483.67,907,1483Zm1,5c0.333,0.67.667,1.33,1,2C908.667,1489.33,908.333,1488.67,908,1488Zm1,4c0.333,0.67.667,1.33,1,2C909.667,1493.33,909.333,1492.67,909,1492Zm2,9c0.333,0.67.667,1.33,1,2C911.667,1502.33,911.333,1501.67,911,1501Zm3,11c0.333,0.67.667,1.33,1,2C914.667,1513.33,914.333,1512.67,914,1512Zm1,4c0.333,0.67.667,1.33,1,2C915.667,1517.33,915.333,1516.67,915,1516Zm1,3c0.333,0.67.667,1.33,1,2C916.667,1520.33,916.333,1519.67,916,1519Zm2,7c0.333,0.67.667,1.33,1,2C918.667,1527.33,918.333,1526.67,918,1526Zm1,3c0.333,0.67.667,1.33,1,2C919.667,1530.33,919.333,1529.67,919,1529Zm1,3c0.333,0.67.667,1.33,1,2C920.667,1533.33,920.333,1532.67,920,1532Zm1,3c0.333,0.67.667,1.33,1,2C921.667,1536.33,921.333,1535.67,921,1535Zm1,3c0.333,0.67.667,1.33,1,2C922.667,1539.33,922.333,1538.67,922,1538Zm1,3c0.333,0.67.667,1.33,1,2C923.667,1542.33,923.333,1541.67,923,1541Zm4,11c0.333,0.67.667,1.33,1,2C927.667,1553.33,927.333,1552.67,927,1552Zm-35,179c0.024,3.06-.962,1.4,1,4,0.667-.67,1.333-1.33,2-2C894,1732.33,893,1731.67,892,1731Zm-8,24c0.024,3.06-.962,1.4,1,4,0.667-.67,1.333-1.33,2-2C886,1756.33,885,1755.67,884,1755Zm-24,48c0.024,3.06-.962,1.4,1,4,0.667-.67,1.333-1.33,2-2C862,1804.33,861,1803.67,860,1803Z"/>
    <path id="形狀_23" data-name="形狀 23" class="cls-10" d="M887,1280c20.466-.06,41.048,10.58,36,35-5.748,27.81-15.95,55.6-21,87q-2.5,105.99-5,212c-5.32,34.75,6.407,102.33-43,90-28.208-7.04-24.727-37.62-20-68q0.5-21.495,1-43,0.5-52.995,1-106c2.325-52.31,4.262-103.95,15-147,4.354-17.45,6.147-37.83,16-50C871.778,1284.1,879.467,1283.38,887,1280Z"/>
    <path id="形狀_24" data-name="形狀 24" class="cls-7" d="M777,978c0-12.841,1.86,119.41-1,183q-54.5,4.005-109,8,0.5-100.485,1-201h1c-3.521-42.989-4.277-134.631,1-168,18.236-115.326,128.365-155.493,246-181,44.8-9.714,137.41-17.8,182-18,8.33,34.074,7.8,79.153,1,112-110.847-1.435-254.751,23.145-298,87C756.529,865.659,785.338,922.3,777,978Z"/>
  </g>
</svg>
