<svg xmlns="http://www.w3.org/2000/svg" xmlns:xlink="http://www.w3.org/1999/xlink" width="499.968" height="500" viewBox="0 -171.579 2480 2480.159">
  <defs>
    <style>
      .cls-1 {
        fill: #f1c182;
      }

      .cls-1, .cls-2, .cls-3, .cls-4, .cls-5 {
        fill-rule: evenodd;
      }

      .cls-2 {
        fill: #f9f1d9;
      }

      .cls-3 {
        fill: #fff;
      }

      .cls-4 {
        fill: #c09b61;
      }

      .cls-5 {
        fill: #aa7f4d;
      }
    </style>
    <clipPath id="clip-path">
      <rect width="2480" height="2137"/>
    </clipPath>
  </defs>
  <g clip-path="url(#clip-path)">
    <path id="形狀_34" data-name="形狀 34" class="cls-1" d="M276,358c35.648-.29,75.565.824,105,4-0.333.667,16.333,18.333,16,19-30.064,14.6-98.85,124.6-112,155-65.948,152.465-19.375,376.371,40,524-0.333,0-8.667,14.28-9,0-23.474,13.14-58.669-2-85-6-64.423-16.68-126.021-70.6-160-118C-35.565,787.356,5.3,515.053,128,421c26.78-20.528,62.291-38.5,100-48C242,371,262,360,276,358Z"/>
    <path id="形狀_33" data-name="形狀 33" class="cls-2" d="M416,368c20.827,0.454,44.954,23.647,63,29,41.5,12.31,80.444,22.086,118,38l66,33c-18.332,24.664-25.668,52.336-44,77-17.689,50.667-51.107,92.881-72,152-6.333,30.33-9.667,69.67-16,100,2,23-5,57-3,80,8.343,82.055,26.4,173.22,31,234,2.02,26.69,33.277,45.92,41,69-20.245-5.15-57-27.72-73-39-36.043-25.41-79.6-40.63-122-59-37.22-16.13-56.208,9.46-79-27-19.1-30.55-30.956-96.157-41-136-42.283-167.738-42.624-338.191,35-444,11.666-12.665,49.334-73.335,61-86C392.666,383,404.334,374,416,368Z"/>
    <path id="形狀_32" data-name="形狀 32" class="cls-1" d="M725,528v52c8.261,35.465,49.9,85.73,79,101-17.668,40.542-30.64,86.5-41,134-7.118,32.636-5.642,72.934-17,102-25.989,66.508-82.972,112.95-96,189-5.982,34.92,5.043,70.11,11,96h-1c-150.25-47.81-149.433-454.936-72-588,15.98-27.461,31.889-54.624,50-80l42-53c15.21,8.627,33.491,27.094,36,48Z"/>
    <path id="形狀_31" data-name="形狀 31" class="cls-1" d="M1420,308c372.91-5.668,554.21,183.691,639,467,16.65,55.629,14.72,134.456,42,181,26.93,45.95,105.83,92.62,118,147-37.57-167.881,61.9,219.21-169,222-74.56,44.79-211.92,86.53-408,90,56.95,13.39-118,7.61-118,1-48-.33-179,4.33-227,4-15.2-2.28-87.51,3.55-97-5-183.01-3.08-312.42-17.42-412-94-58.224-23.43-97.509-82.54-110-155-2.5-14.53,1.646-64.64,6-79,19.209-63.35,63.769-96.329,88-157,9.84-24.637,8.979-54.938,15-85,8.523-42.555,16.465-84.577,31-122,66.339-170.8,175.246-294.9,343-364,51.45-21.191,108.15-32.336,170-44Z"/>
    <path id="形狀_30" data-name="形狀 30" class="cls-3" d="M2303,1330c35.99-.35,77.23-2.07,100,12,54.55,33.7,66.24,187.25,40,262-36.29,103.39-116.32,161.62-217,201-39.23,15.34-91.41,29.56-145,21v-3q10.995-28.5,22-57c125.26,1.42,209.79-49.66,245-139,7.42-18.82,10.93-40.37,15-62,25.96-138.07-53.63-178.38-172-145,0.54-18.6,3.83-52.45,12-67,14.1-5.33,29.19-12.11,46-16Q2276,1333.505,2303,1330Z"/>
    <path id="形狀_29" data-name="形狀 29" class="cls-3" d="M2179,1266c5.12,5.73.3,31.56-1,41l-15,105c-25.14,119.39-46.5,237.9-87,342-10.29,26.43-16.05,54.63-30,78-50.95,85.39-104.19,172.78-200,215-96.74,42.64-222.81,50.54-362,52-164.97,1.73-316.36-12.29-426-68-87.605-44.52-192.125-141.17-232-232-30.693-69.91-47.746-146.69-71-225-19.31-65.03-29.819-133.18-45-204-4.381-20.44-16.6-70.67-12-91q18.5,19.995,37,40,12.5,9.495,25,19c10.109,14.53,3.622,39.93,16,56,14.792,19.2,44.512,27.52,63,43,23.168-9.01,58.66,7.76,93,2,17.2-2.88,34.654-5.64,49-9h17q5-4.5,10-9l131,15c0.23,0.05,10.78-3.04,17-2q63.99,1.995,128,4c46.61,7.87,123.25,1,179,1q86.985-1.995,174-4,36-1.995,72-4c35.35-6.96,71.3-3.2,104-10,26.12-5.43,43.7,10.76,69,16,69.07,14.32,159.02-11.7,182-50,5.56-9.26,2.3-23.3,5-34C2104.13,1341.91,2162.07,1295.82,2179,1266Zm-620,365h0Zm-39,18c-1.33,2-2.67,4-4,6h1v-2C1519.55,1651.41,1521,1651.43,1520,1649Zm36,3h0Zm11,0h0Zm-179,3c-1.33,1-2.67,2-4,3q11.505-1.005,23-2Q1397.505,1655.505,1388,1655Zm234,17v0Zm-7,21c-1,.67-2,1.33-3,2v1C1613.38,1695.35,1617.55,1694.12,1615,1693Zm-529,1c1,0.33,2,.67,3,1C1088,1694.67,1087,1694.33,1086,1694Zm11,0c1,0.33,2,.67,3,1C1099,1694.67,1098,1694.33,1097,1694Zm682,23c-0.33.67-.67,1.33-1,2l2-2h-1Zm-213,2c1.33,1.67,2.67,3.33,4,5C1568.67,1722.33,1567.33,1720.67,1566,1719Zm-146,6c1.33,0.33,2.67.67,4,1C1422.67,1725.67,1421.33,1725.33,1420,1725Zm150,0c0.33,2.33.67,4.67,1,7C1570.67,1729.67,1570.33,1727.33,1570,1725Zm-521,5c-2.95,7.35-4.06,28.22,1,34C1048.23,1755.35,1050.84,1736.09,1049,1730Zm86,0v0Zm256,3c1,0.33,2,.67,3,1C1393,1733.67,1392,1733.33,1391,1733Zm76,6c1,0.33,2,.67,3,1C1469,1739.67,1468,1739.33,1467,1739Zm-8,2c-0.33.67-.67,1.33-1,2l2-2h-1Zm-322,1c0.67,1,1.33,2,2,3C1138.33,1744,1137.67,1743,1137,1742Zm319,2c-0.33.67-.67,1.33-1,2l2-2h-1Zm-316,1,2,2c-0.33-.67-0.67-1.33-1-2h-1Zm90,2c1.33,0.33,2.67.67,4,1C1232.67,1747.67,1231.33,1747.33,1230,1747Zm171,5c0.67,0.33,1.33.67,2,1C1402.33,1752.67,1401.67,1752.33,1401,1752Zm289,0q0.495,6,1,12Q1690.505,1758,1690,1752Zm-235,4c1.67,1.33,3.33,2.67,5,4v-1C1458.33,1758,1456.67,1757,1455,1756Zm-189,1,2,2Zm195,3c1,0.33,2,.67,3,1C1463,1760.67,1462,1760.33,1461,1760Zm-190,1c0.67,1.33,1.33,2.67,2,4h1C1273,1763.67,1272,1762.33,1271,1761Zm234,1v4h1C1505.67,1764.67,1505.33,1763.33,1505,1762Zm-170,4v3c0.33-1,.67-2,1-3h-1Zm-24,10c1,0.33,2,.67,3,1C1313,1776.67,1312,1776.33,1311,1776Zm559,17h0Zm-683,2q0.495,7.005,1,14Q1187.505,1802,1187,1795Zm517,6c1,0.33,2,.67,3,1C1706,1801.67,1705,1801.33,1704,1801Zm-4,1c-1.33,1.67-2.67,3.33-4,5C1699.58,1804.41,1700.6,1803.62,1700,1802Zm-523,16,2,2Zm2,3c0.67,3.33,1.33,6.67,2,10C1181.14,1826.08,1180.94,1823.43,1179,1821Zm592,6,6,6A12.663,12.663,0,0,0,1771,1827Zm41,0c1.33,0.33,2.67.67,4,1C1814.67,1827.67,1813.33,1827.33,1812,1827Zm15,0h0Zm-293,35c-0.33.67-.67,1.33-1,2l2-2h-1Z"/>
    <path id="形狀_28" data-name="形狀 28" class="cls-3" d="M1894,140c25.66,35,57.34,77,83,112,30.52,40.406,85.43,77.45,106,124,25.69,58.139-9.81,197.9-34,235-5.67,0-20.33,8-26,8-19-10.067-63.12-105.637-74-118-68.11-77.4-191.88-148.8-248-177-16.91-23.37,32.65-64.39,44-74C1792.25,209.979,1865.19,198.286,1894,140Z"/>
    <path id="形狀_27" data-name="形狀 27" class="cls-3" d="M888,198c41.319,0.629,131.84,89.941,154,118,12.15,15.381,32.5,29.21,26,57-93.619,49.61-164.579,129.715-219,219-12.255,20.106-27.2,42.236-35,66-14.1.937-25.481-16.571-33-26-28.319-35.512-45.334-60.294-33-126,8.514-45.353,17.287-91.274,38-125,12.622-20.552,32.546-33.854,47-52C858.753,296.668,883.168,249.366,888,198Zm44,97h0Zm-57,27q-0.5,1.5-1,3l3-2Zm128,22,3,4Zm3,5c0.33,1.666.67,3.334,1,5C1006.67,352.334,1006.33,350.666,1006,349ZM793,565v0Zm1,3,3,5Zm17,3v0Zm-13,2,2,2Zm11,0q-0.5,1-1,2l2-2h-1Z"/>
    <path id="形狀_26" data-name="形狀 26" class="cls-3" d="M1714,680c17.84-.344,45.24-2.333,59,4-0.67.333-1.33,0.667-2,1-16.73,11.567-120.69,51.686-149,44,0.79-35.428,32.43-41.465,63-47Z"/>
    <path id="形狀_25" data-name="形狀 25" class="cls-3" d="M1183,694c34.94-1.228,82.44-.007,75,37-15.99,20.9-121.1-17.152-135-28Z"/>
    <path id="形狀_24" data-name="形狀 24" class="cls-3" d="M1936,968c17.31-.184,32.5,1.205,43,8,43.14,27.93,54.07,167.28,37,236-6.71,27-16.12,49-29,69-91.87-41.9-161.54,29.97-169,111q-32.49,3.495-65,7c3.6-9.71,42.53-39.12,52-51,29.33-36.81,55.92-75.84,74-124,25.83-68.79-47.39-161.72-5-225C1888.67,977.109,1909.22,978.8,1936,968Z"/>
    <path id="形狀_23" data-name="形狀 23" class="cls-3" d="M965,993l35,2q6.5,7.5,13,15c6.46,3.25,12.43,1.37,17,6,27.03,27.34-1.99,143.5,10,189,15.77,59.84,51.63,114.18,86,157,14.42,17.96,35.83,27.88,52,44-46.47.54-123.77-2.41-162-14,10.76-40.61-44.257-100.02-68-113-12.5-6.83-38.923-8.66-47-20q-5.5-17.505-11-35c-17.191-56.5-23.237-146.47,9-192C917.734,1005.54,933.805,1006.55,965,993Z"/>
    <path id="形狀_22" data-name="形狀 22" class="cls-3" d="M1419,957c144.14-1.649,273.51,7.529,336,87,84,106.82-22.8,235.58-93,279-39.66,24.53-84.81,47.8-136,59-107.52,23.53-235.07-59.6-290-103-49.7-39.27-96.02-113.06-59-201,28.08-66.71,86.69-95.1,164-113Z"/>
    <path id="形狀_21" data-name="形狀 21" class="cls-4" d="M1943,1279c42.05,6.78,93.17,48.08,98,88-18.25,38.95-77.99,68.64-137,59-21.56-3.52-57.09-21.34-65-38-7.61-28.74,39.24-85.75,56-96C1904.35,1286.28,1931.43,1283.45,1943,1279Z"/>
    <path id="形狀_20" data-name="形狀 20" class="cls-4" d="M901,1296c36.648,4.55,100.18,53.11,84,100-51.037,28.44-171.253,17.92-191-30,6.1-32.7,51.022-55.72,81-65Q888,1298.495,901,1296Z"/>
    <path id="形狀_19" data-name="形狀 19" class="cls-4" d="M928,316c18.176-.349,54.923,25.809,53,37l-38,39c-26.833,33.183-56.047,60.236-83,94-9.8,12.28-22.573,34.1-37,41,13.457-69.114,24.035-157.631,71-194C904.083,325.192,915.877,322.227,928,316Z"/>
    <path id="形狀_18" data-name="形狀 18" class="cls-4" d="M1881,255c12.55,6.981,23.06,26.876,32,38,32.6,40.554,81.06,67.687,106,117,6.59,13.038,12.58,53.509,5,73q-14.505-14-29-28c-10.67-11-15.33-2-26-13-21.39-26.479-119.72-118.22-153-126,2-12.252,17.86-35.61,26-46C1854,261.334,1869,263.666,1881,255Z"/>
    <path id="形狀_17" data-name="形狀 17" class="cls-5" d="M1580,13c14.33,0.55,21.56,10.439,28,19,33.97,45.132-8.37,81.376-16,122-4.66,24.8,19.62,34.4,14,50q-2.505,3.5-5,7l-9-1c-52.06-24.957,1.04-104.3,7-136,5.9-31.4-24.35-29.907-26-52,0.33-1,.67-2,1-3Z"/>
    <path id="形狀_16" data-name="形狀 16" class="cls-5" d="M1365,8l6,1c66.56,44.881-2.08,119.121-12,168q16.005,11,32,22v7c-1.33,2.333-2.67,4.667-4,7-22.34,6.378-40.77-17.826-52-30,0.25-17.236,9.84-28.942,16-41,11.17-21.87,22.15-44.324,27-72,5.27-30.037-19.98-31.552-21-53C1359.36,12.271,1361.02,10.993,1365,8Z"/>
    <path id="形狀_15" data-name="形狀 15" class="cls-5" d="M1158,6l6,1c9.27,6.919,13.71,16.933,18,29,20.69,58.159-42.07,94.092-33,132,4.36,18.221,43.06,27.633,38,42l-6,7c-16.36,0-23.87-8.82-33-16-49.63-39.036,7.97-92.472,16-134,4.57-23.6-9.17-34.3-15-48,0.67-2.666,1.33-5.334,2-8C1153.33,9.334,1155.67,7.667,1158,6Z"/>
    <path id="形狀_14" data-name="形狀 14" class="cls-5" d="M1790,1712c31.56-.86,62,27.15,48,62-8.41,20.93-29.36,30.98-51,39q3,3.495,6,7c17.25,5.79,44.48,11.16,62,0,12.68-8.08,4.69-36.25,28-23,11.11,45.13-53.6,62.18-91,46C1742.59,1821.62,1744.22,1736.3,1790,1712Zm6,21c-14.07,11.48-24.4,32.59-19,60,37.1-4.49,56.7-34.48,26-60h-7Z"/>
    <path id="形狀_13" data-name="形狀 13" class="cls-5" d="M1652,1718c30.86-.8,48.73,28.39,36,59-10.29,24.73-31.43,26.85-57,37l2,2c3.63,7.62,10.35,11.29,18,15,40.62,19.69,35.43-32.09,59-29l6,6c-0.66,48.94-59.92,56.89-91,32C1578.27,1802.57,1614.09,1737.1,1652,1718Zm2,21c-15.96,12.48-28.77,27.92-29,56,25.29-11.93,52.82-13.27,42-52-1.67-1.33-3.33-2.67-5-4h-8Z"/>
    <path id="形狀_12" data-name="形狀 12" class="cls-5" d="M1557,1631c29.13-1.19,50.52,6.78,61,24,8.42,13.83,5.48,35.85-8,42-17.79-6.11-6.73-15.1-9-31-7.96-8.4-17.56-12.9-34-13-42.81-.26-47.37,35.18-45,77,13.84-1.59,31.6-14.32,43-11,2,1.67,4,3.33,6,5-0.33,3-.67,6-1,9-5.34,10.71-30.88,16.56-45,18v6c6.56,23.79,16.68,81.39,11,105q-4.5,2.505-9,5c-7.53-2.57-10.31-4.98-15-10,2.21-30.23-3.02-65.93-8-101q-22.005,1.995-44,4c-2-1.67-4-3.33-6-5-0.26-7.34.47-10.44,5-13,7.64-5.83,31.15-6.05,42-7v-41C1508.23,1651.71,1523.28,1646.29,1557,1631Z"/>
    <path id="形狀_11" data-name="形狀 11" class="cls-5" d="M1353,1739c24.58-1.03,50.11-11.18,71-14,2,1.33,4,2.67,6,4,1.16,3.7,2.72,6.91,1,11-8.95,17.51-55.91,14.81-76,21,4.79,16.24,22.13,88.15,11,95-2.27,1.82-3.46,1.91-8,2-12.83-8.75-19.97-68.52-23-91q-12.495,4.995-25,10c-4.38-3.29-5.65-4.48-8-10,0.33-2,.67-4,1-6,6.35-8.11,18.66-13.06,30-16-15.82-53.99,17.46-103.83,57-110,31.49-4.91,80.23,27.22,60,56-0.67.33-1.33,0.67-2,1-2.67-.33-5.33-0.67-8-1-11.59-6.42-6.03-24.02-23-31C1362.1,1637.42,1352.16,1692.46,1353,1739Z"/>
    <path id="形狀_10" data-name="形狀 10" class="cls-5" d="M1228,1747c79.22-1.84,70.05,102.48,12,111-28.53,4.19-61.42-37.31-52-69C1194.49,1767.16,1210.97,1758.13,1228,1747Zm-3,27c-23.58,13.95-20.23,55.62,8,62,28.18,6.37,41.57-45.64,23-60q-3,4.005-6,8C1237.46,1783.37,1236.71,1776.29,1225,1774Z"/>
    <path id="形狀_9" data-name="形狀 9" class="cls-5" d="M1086,1671c37.96-.51,77.41,31.35,70,71-2,1.67-4,3.33-6,5-2,.33-4,0.67-6,1-2.33-1.33-4.67-2.67-7-4-11.09-66.25-77.63-65.16-89-6-8.26,42.96,55.1,123.6,93,114,18.66-4.72,15.66-41.45,34-35,2,1.67,4,3.33,6,5,0.55,45.01-43.67,63.48-80,42-51-30.16-117.234-137.35-37-186Q1074.995,1674.505,1086,1671Z"/>
    <path id="形狀_8" data-name="形狀 8" class="cls-5" d="M1883,230l8,1q24.495,29.5,49,59c38.07,47.568,126.51,130.168,101,223l-12,2c-17.11-11.236-33.23-29.181-46-45q-14.505-14-29-28c-31.79-39.392-100.95-107.524-154-123q-1.005-5-2-10C1814.35,269.485,1852.02,254.873,1883,230Zm-1,25c-9.14,15.262-44.8,30.792-58,50,26.71,3.569,48.04,30.678,66,45,36.97,29.483,68.87,64.628,102,98q16.005,16.5,32,33c-0.1-77.281-65.39-130.249-101-175C1916.67,298.047,1885.7,257.271,1882,255Z"/>
    <path id="形狀_7" data-name="形狀 7" class="cls-5" d="M932,295c32.1,0.2,41.777,22,58,38,5.218,5.148,12.64,7.977,16,15,0.33,2,.67,4,1,6L860,517c-9.977,12.452-42.3,57.11-58,59-15.337-8.2,4.367-70.3,9-91,16.428-73.395,29.016-145.889,85-179C906.608,299.726,919.159,300.1,932,295Zm-2,22c-13.124,6.8-25.2,9.589-36,18-43.69,34.027-59.153,122.733-69,189L979,352C968.391,337.121,955.136,317.135,930,317Z"/>
    <path id="形狀_6" data-name="形狀 6" class="cls-5" d="M1178,673c49.14-1.424,91.58,1.448,101,40,2.97,12.159,1.1,26.356-5,35-26.64,37.731-133.8-14.637-159-25-11.42-4.7-33.67-6.833-41-16q1.005-7,2-14l61-15Zm5,21-60,9c0.67,0.333,1.33.667,2,1,20,14.33,68.01,27,95,33,13.94,3.1,32.68,3.814,38-7C1267.99,694.28,1215.19,693.068,1183,694Z"/>
    <path id="形狀_5" data-name="形狀 5" class="cls-5" d="M1708,659c47.14-.8,103.82.665,134,19,0.67,2.666,1.33,5.334,2,8q-2.505,4-5,8l-40,5q-64.5,23.5-129,47c-17.98,5.416-50.8,10.3-66,0-8.94-54.178,23.09-73.249,67-83Zm6,21-29,2c-25.89,4.644-70.77,13.961-62,48,49.94,1.166,84.34-19.3,120-34q16.005-6.5,32-13Z"/>
    <path id="形狀_4" data-name="形狀 4" class="cls-5" d="M1123,844c70.24-2.106,101.5,66.869,41,93-42.12,18.19-113.48-13.186-88-63C1085.53,855.363,1102.67,852.392,1123,844Z"/>
    <path id="形狀_3" data-name="形狀 3" class="cls-5" d="M1726,844c72.08-2.157,99.68,68.849,38,94-40.33,16.444-104.49-10.316-88-58C1684.1,856.579,1703.27,853.385,1726,844Z"/>
    <path id="形狀_2" data-name="形狀 2" class="cls-5" d="M1450,1001c28.89-1,65.28,11.97,66,38-6.31,12.35-19.97,22.56-34,27q-1.5,7.005-3,14c4.16,30.03,89.11,88.5,133,67,26.33-12.9,7.14-32.86,14-54q3-3.495,6-7c7.46-.05,8.99,1.27,13,4,11.4,64.38-22.51,96.34-89,76-46.23-14.14-60.58-35.02-90-64v2c-28.76,25.32-43.58,58.19-86,71-38.71,11.69-104.36-27.34-100-58,2.74-3.84,7.84-7.7,14-5,18.67,9.69,24.25,33.65,47,42,51.76,18.98,103.35-51,116-82l-1-1c-22.41-.5-61.15-16.08-63-37C1404.18,1012.88,1427.86,1011.51,1450,1001Z"/>
    <path id="形狀_1" data-name="形狀 1" class="cls-5" d="M1890,101l9,4c9.53,44.971,34.03,66.694,57,97,25.77,34,52.55,66.15,79,99,25.06,31.132,56.93,53.244,66,101,11.66,61.395-10.26,148.966-27,190-7.03,17.216-13.1,38.938-36,40a1036.24,1036.24,0,0,1,58,170q10.005,57.5,20,115c22.59,65.182,84.02,95.55,108,159,17.42,46.11-5.46,102.08-14,137q0.495,22.005,1,44-2.505,30.99-5,62c19.39-8.64,44.51-11.65,68-16,24.43-4.52,59.48-5.45,84-1,20.46,3.71,37.87,3.87,54,11,56.46,24.97,68,102.47,68,185v84c-27.6,132.05-128.2,206.05-244,251-46.92,18.21-108.04,30.95-168,20-10.59,33.32-36.81,61.88-56,88-63.68,86.67-138.3,136.92-260,167-46.13,11.4-94.2,8.93-146,17l-77,3H1409q-37.5-1.005-75-2c-65.03-10.36-126.88-11.24-183-28-154.337-46.1-267.114-138-341-264-44.417-75.75-66.121-191.06-92-285-14.768-53.6-23.463-109.2-36-167-9.37-43.2-18.517-97.97-15-148-106.018-15.12-162.543-100.23-251-135-68.028-26.74-168.856-18.95-235-46C83.07,1012.95,20.956,923.817,0,807V639l13-57C58.009,436.7,174.045,297.259,387,343c55.571,11.936,111.424,26.306,162,44,52.756,18.457,159.586,56.349,180,101h1c6.743-56.348,28.469-104.63,56-141,16.538-21.848,37.516-39.575,52-64,12.254-20.664,23.131-47.82,28-74,2.381-12.8-2.178-22.653,0-32l5-4c32.139,0.346,56.417,16.912,79,32,56.02,37.425,117.38,86.827,144,153,140.85-72.042,408.55-115.254,590-44,9.41-77.654,109.19-99.774,160-139,23.28-17.97,26.81-37.726,37-70Zm0,50c-26.44,76.695-160.98,74.313-186,170,32.82,6.141,66.93,28.478,93,44,98.46,58.629,177.65,138.667,229,244,5.65-2.441,9.93-1.35,16,0,20.74-43.09,58.08-160.076,32-223-21.12-50.943-73.14-84.857-105-127ZM891,198l-3,1c-0.89,32.275-15.753,62.1-27,87-17.253,38.207-52.769,60.005-74,94-17.326,27.742-54.248,142.938-42,193,8.585,35.088,38.819,70.684,67,87v-2l20-39,41-67c51.045-72.458,119.731-141.278,201-183-8.44-47.833-90.151-112.929-126-139C932.4,218.652,913.4,201.25,891,198Zm524,111-92,8c-57.4,10.811-110.79,22.28-159,42C992.694,429.075,884.2,554.439,817,729c-14.378,37.351-21.778,79.419-30,122-5,25.874-3.682,52.421-12,74-24.114,62.561-70.359,107.05-92,170-6.221,18.1-3.663,45.51,0,65,17.214,91.58,47.1,110.54,104,160q4-4.005,8-8c19.092-8.57,34.864-25.33,56-34,7.767-3.19,25.844-4.17,30-11-38.079-94.03-46.1-236.86,42-282,24.352-12.477,71.7-21.414,100-5,64.22,37.25,21.15,152.46,44,228,19.26,63.67,52.37,126.15,99,163,9.67,7.64,23.72,19.15,37,22h11l12,15q95.985,0.495,192,1c-23.53-3.67-45.37-15.48-65-24-82.16-35.65-169.61-86.1-205-168-10.24-23.7-17.01-59.58-11-93,18.6-103.38,69.56-151.781,162-180,27.28-8.329,57.36-9.84,88-15l40-1c28.16-4.5,69.82-3.5,97,1l72,6c84.55,16.928,153.83,41.278,192,104,25.75,42.31,33.24,121.94,11,174-33.15,77.61-105.94,135.16-183,169-19.63,8.62-40.02,21.14-64,25v1l151-6c66.1-29.52,143.84-120.61,158-201,4.62-26.24-5.14-50.68-10-70-16.27-64.71-16.72-139.639,32-169,11.22-6.764,27.51-10.134,42-13,119.87-23.7,135.72,155.25,113,259-6.81,31.1-19.07,57.2-28,84,12.83,4.79,40.2,24.07,43,35,9.8-2.23,21.58-11.18,31-17,50.39-31.12,86.41-67.08,105-130,6.05-20.47,16.17-56.17,9-84-14.47-56.19-68.29-89.75-96-136-23.12-38.591-22.59-97.872-35-148C1987.55,491.1,1798.88,311.428,1415,309ZM301,367c-18.833,7.251-52.164,4.921-72,11-58.146,17.819-100.477,52.548-132,97C46.858,545.709,1.344,687.88,32,812c15,60.713,37.7,107.453,71,149,30.451,37.993,79.356,63.36,134,77q34.5,4.995,69,10c-7.445-10.43-1.891-7.52-4-18q-9-17.5-18-35c-12.467-30.339-19.493-65.6-27-100-27.14-124.347-11.273-291.573,29-387,25.937-61.457,54.241-89.525,95-134v-1C355.257,371.876,330.314,367.168,301,367Zm109,13-29,23c-20.892,16.739-39.084,44.522-53,68-57.9,97.691-81.75,293.269-46,437,7.9,31.778,15.78,64.036,28,92,8.047,18.41,26.339,34.07,32,52,79.31,3.97,133.307,42.1,183,77,16.148,11.34,33.02,26.12,52,34-34.04-65.29-40.878-118.18-56-205q-2-41-4-82c-6.66-41.829-1.406-95.233,6-132,19.127-94.958,56.255-162.969,104-228l36-46q-0.5-1-1-2l-50-26c-43.818-19.259-89.773-31.281-139-46ZM724,529l-9,1c-1.537-21.026-20.139-37.65-34-47l-3,2-31,39a925.289,925.289,0,0,0-53,81c-66.446,113.5-71.843,334.045-27,479,13.784,44.56,41.478,110.77,92,116q-5-30.99-10-62c-12.336-73.66,68.408-156.808,91-209,18.109-41.834,17.178-103.493,30-150,5.2-18.846,32.493-88.4,31-99-26.149-9.455-70.678-69.727-77-100V529Zm704,428-85,8c-72.96,16.054-135.04,43.4-162,105-68.84,157.3,89,246.79,190,289,39.12,16.35,90.61,40.13,147,26,105.56-26.45,203.31-85.31,248-173,24.87-48.8,20.1-131.03-12-169C1689.66,966.892,1569.65,956.622,1428,957Zm513,11c-26.02,9.993-47.83,6.408-63,26-47.81,61.74,24.03,153.89,3,224-16.32,54.42-49.31,96.5-81,136l-47,44q32.49-3.495,65-7c-0.71-61.39,53.25-115.69,107-124,26.35-4.08,47.43,15.16,66,13,8.23-25.87,20.37-49.59,27-80,14.11-64.79,1-192.95-34-220C1973.63,971.987,1958.99,968.357,1941,968Zm-924,425q30.495,3.495,61,7,33.495,1.995,67,4,16.5,0.495,33,1h-2c-16.04-17-38.23-27.54-53-46-34.58-43.22-65.38-93.22-80-156-13.97-60.01,18.04-171.33-28-201-28.6-18.431-74.324-5.485-95,10-75.12,56.26-38.309,177.47-15,255C962.781,1267.04,1017.54,1333.66,1017,1393Zm1163-128c-22.41,39.29-70.42,68.75-112,89,21.04,68.83-120.58,95.8-189,83-18.67-3.49-31.45-13.26-45-18l-43,6-108,9q-67.5,1.995-135,4-43.995.495-88,1H1282c-70.39,0-148.3.88-212-11q-34.5-4.005-69-8c-10.228,5.1-20.625,11.57-34,15-71.506,18.34-179.228-6.14-199-54-5.448-13.19,1.907-27.76,1-37-30.535-12.51-48.542-43.88-71-65-0.559,40.58,9.1,81.59,17,117,13.316,59.68,22.45,117.78,39,173,25.365,84.64,39.738,177.54,81,248,68.252,116.55,172.07,204.81,313,249,45.66,14.32,95.9,18.03,148,27q37.995,2.505,76,5,40.995,0.495,82,1,55.995-1.005,112-2l68-3c67-11.18,130.24-14.51,185-36,112.83-44.29,190.27-139.16,237-249,26.22-61.64,41.59-127.45,62-196,23.15-77.73,33.81-160.23,51-246C2172.39,1350.08,2184.94,1280.11,2180,1265ZM902,1297l-37,9c-23.638,9.33-67.81,31.48-69,62,16.457,32.26,83.165,48.62,136,40,21.907-3.58,45.986-1.06,54-18C995.344,1353.72,937.371,1296.83,902,1297Zm1019,1c-28.95,14.88-81.69,50.78-71,95,49.49,37.05,165,12.35,190-27C2025.53,1326.23,1975.35,1297.71,1921,1298Zm387,32-32,3c-28.35,5.06-54.06,10.57-75,22q-4.995,33-10,66h1q22.995-5.505,46-11c160.31-30.13,146.38,164.86,94,251-29.25,48.11-76.09,78.44-137,95-6.96,1.89-92,10-92,10q-10.995,28.995-22,58l2,2c50.99,11.58,108.05-7.41,145-22,102.24-40.37,184.52-101.29,218-210,22.55-73.21,8.42-214.21-39-249C2385.59,1329.29,2344.58,1329.66,2308,1330Zm-51,108q-16.005,2.505-32,5l-40,12c-26.44,96.03-36.85,194.06-71,281,103.71-.57,176.32-43.75,206-119,14.54-36.86,31.67-137.57-3-165C2302.76,1440.73,2283.2,1437.62,2257,1438Z"/>
  </g>
</svg>
