<svg xmlns="http://www.w3.org/2000/svg" xmlns:xlink="http://www.w3.org/1999/xlink" width="500.409" height="500" viewBox="0 -39.033 2366 2364.066">
  <defs>
    <style>
      .cls-1 {
        fill: #efd2a7;
      }

      .cls-1, .cls-2, .cls-3, .cls-4, .cls-5, .cls-6, .cls-7, .cls-8, .cls-9 {
        fill-rule: evenodd;
      }

      .cls-2 {
        fill: #ecde9b;
      }

      .cls-3 {
        fill: #d3b47e;
      }

      .cls-4 {
        fill: #f8f4d6;
      }

      .cls-5 {
        fill: #f1c182;
      }

      .cls-6 {
        fill: #c09b61;
      }

      .cls-7 {
        fill: #fff;
      }

      .cls-8 {
        fill: #aa7f4d;
      }

      .cls-9 {
        fill: #ecb5a0;
      }
    </style>
    <clipPath id="clip-path">
      <rect width="2366" height="2286"/>
    </clipPath>
  </defs>
  <g clip-path="url(#clip-path)">
    <path id="形狀_33" data-name="形狀 33" class="cls-1" d="M2191,1175,757,1299c32.663-2.33,63.337-6.67,96-9,25.331-1.33,52.669-2.67,78-4,58.309-8.86,123.59-2.92,186-3,410.54-.34,487.69,12.5,661,26,139.48,32.37,188.51,34.72,254,57,18.66,7.67,67.34,27.33,86,35-0.33.67-38.67,9.33-39,10-27.33,7.67-40.67,7.33-68,15l-160,30c-94.88,18.79-196.03,15-296,31q-61.995,3.495-124,7c-58.33,1.33-117.67,7.67-176,9-32.33.33-66.67,0.67-99,1-41.66-.67-77.34-1.33-119-2-32-.67-65-0.33-97-1-22-1-50-3-72-4-64.66,1.33-122.34-8-187-13-31.664-3-71.336-5-103-8-77.145-13.63-150.828-28.17-222-46-52.411-13.13-148.3-25.33-135-33,17.177,2.73,140.843-36.61,153-47C559,1322.09,577.283,1310.46,757,1299Z"/>
    <path id="形狀_32" data-name="形狀 32" class="cls-2" d="M2123,1400c-285.29-183.74-1657.612-162.95-1904,6-52.085-19.31-82.948-49.94-88-78,167.536-141.5,776.009-162.33,863-167,27.23-4.34,730.23-53.73,1142,108C2280.58,1353.77,2181.09,1375.73,2123,1400Z"/>
    <path id="形狀_31" data-name="形狀 31" class="cls-3" d="M1370,1073c32.35,8.73,67.29,2.45,103,8,36,1.67,74,9.33,110,11,45.33,0.67,92.67-5.67,138-5,45-1,94,1,139,0,5.97,4.44,3.26,98.98,1,111-5,4,8,13,3,17,6.53,14.66-1.01,35.35-4,53-2.84,16.76-6.57,44.38-2,60-9.92,31.24-88.11,44.32-126,51-36.71,6.47-84.81,2-128,2-130.61.01-242.93-21.92-333-60-0.67-10-.33-26-1-36,9-13,26-23,17.41-44.86,29.34-29.12,39.09-54.56,57.59-89.14-4.33-2.33,6.33-10.67,2-13,1.89-10.14,9.08-13.33,12-20-0.33-3-.67-6-1-9C1358.31,1097.26,1363.16,1078.29,1370,1073Z"/>
    <path id="形狀_30" data-name="形狀 30" class="cls-4" d="M142,1378c16.232,8.8,33.584,16.82,50,26,27.723,15.51,62.245,21.17,94,31,7.333,3.67,18.667,6.33,26,10,4.333-.67,5.667,7.67,10,7,45.474,8.33,96.119,13.47,144,23,77.8,15.48,161.111,15.04,237,28,104.989,4.67,207.01,12.33,312,17,22.66-.67,48.34,2.67,71,2,33.33,0.33,65.67,5.67,99,6,42.33-.67,79.67-3.33,122-4,40-1,79-4,119-5,25.66-1.33,55.34-6.67,81-8,69.26-10.98,144.42-3.66,211-15,71.49-12.18,139.78-19.06,206-28,11.67-.67,26.33-5.33,38-6,81.63-20.11,168.02-34.63,229-77,0.33,0,11.67-6,12-6,6.77,122.72-38.66,229.91-76,315-109.12,248.65-302.5,360.79-564,460-24.55,9.31,35.7,25.76-26.09,49.27-66.41,25.26-244.91,48.78-325.97,39.74C1076.29,2227.99,794.183,2260.06,841,2153c0.811-1.85-51.621-10.92-78-19-282.273-86.43-491.862-240.4-581-522-15.154-47.87-28.5-105.6-37-150C143,1436,144,1404,142,1378Z"/>
    <path id="形狀_29" data-name="形狀 29" class="cls-4" d="M820,998,531,962c38.526,16.105,102.1,80.03,127,114,9.914,13.53,33.925,45.81,38,63,4.663,19.67-48.024,52.18-59,61-43.216,34.75-144.247,139.65-203,134-12.332,5.67-29.668,12.33-42,18-52.215,32.84-89.306,43.84-156,20-19.683-7.04-38.425-25-54-35-38.673-35.61-58.653-66.43-74-104,36.435-.72,79.671-14.65,107-25,29.032-16.8,73.5-37.34,91-48,40.236-24.52,74.8-43.81,111-72,24.752-19.27,47.27-42.56,69-65,7.735-7.99,12.81-23.752,27-22C511.645,983.592,523.394,973.93,531,962Z"/>
    <path id="形狀_28" data-name="形狀 28" class="cls-5" d="M699,1165c11.392,8.61,37.5,127.84,26,157-10.029,15.71-31.028,26.02-47,36-43.4,27.1-143.174,66.24-224,53q-62.994-7.995-126-16c0.667-.33,1.333-0.67,2-1q56.495-21.495,113-43c81.428-35.75,140.772-88.38,205-140Q673.5,1188.005,699,1165Z"/>
    <path id="形狀_27" data-name="形狀 27" class="cls-5" d="M343,899c59.083-1.182,144.185,23.05,169,53-48.347,90.76-183.593,192.02-282,235-35.95,15.7-81.908,30-133,30-39.719-149.67-16.183-200,142-297,18.972-11.634,44.155-13.52,68-18Z"/>
    <path id="形狀_26" data-name="形狀 26" class="cls-5" d="M1617,147c269.53-4.12,451.92,95.332,550,263,15.59,26.653,28.79,64.712,37,97,7.45,29.335,7.26,61.078,19,85,27.03,55.069,88.18,102.042,104,159,8.14,29.306-1.32,73-8,97-22.27,80.047-74.06,141.962-151,166v-1c-67.25,31.99-107.59,41.09-240,51-129.8,7.93-175.95,31.54-476,3-25-1.67-52-8.33-77-10-58.42-8.02-168.34-20.45-276-85h-1c-64.45-34.465-101.7-94.331-118-178-3.213-16.494-6.771-42.988-2-60,17.4-62.063,71.58-100.715,97-157,17.48-38.689,19.53-93.968,36-133,40.93-97.007,115.89-168.18,205-217,58.94-32.292,126.01-52.452,201-69Z"/>
    <path id="形狀_23" data-name="形狀 23" class="cls-6" d="M2022,1075c2,0,4,7,6,7-1,1.67,14-1.67,13,0,16.14,20.82,32.9,30.15,41,59,16.38,58.32-33.11,117.74-48,155-8.09,20.25-6.71,50.02-15,69-54.5,16.83-146.13,17.2-150.08-35.15-3.69-48.9,25.61-92.95.08-119.85-3,1.67-6-12.67-9-11,3.46-12.6-5.05-101.39-9-109,0-.33,18-0.67,18-1,45.93,0.32,73.09,1.68,114-10.42C1998,1085.33,2010,1076.67,2022,1075Z"/>
    <path id="形狀_22" data-name="形狀 22" class="cls-6" d="M1233,1048c31.66,7,53.34,8,85,15,17,2.67,39,7.33,56,10-1.23,14.58-9.08,50.94-19,67-4.67-2-17.33,9-22,7-13.41,27.06-45.28,27.13-63,50-34.47,44.48-1.74,102.3-88,102-10.55-.04-30.17-7.85-37-12-17.77-10.81-12.56-48.76-18-72-22.15-94.6,5.66-140.15,87-163C1214,1061.07,1233,1049.33,1233,1048Z"/>
    <path id="形狀_21" data-name="形狀 21" class="cls-7" d="M2125,27q1.005,16,2,32,7.5,34,15,68c27.56,68.762,64.42,128.4,91,196,16.83,42.8,10.67,82.072-31,94-7.28-22.771-23.22-42.989-36-61-50.24-70.831-113.34-118.366-190-163q-42-18.5-84-37c-3.41-12.585.16-28.974,4-40C1924.56,34.025,2056.62,67.74,2125,27Z"/>
    <path id="形狀_20" data-name="形狀 20" class="cls-7" d="M1169,28l67,18c70.68,16.736,152.44,11.654,167,84,1.53,7.612,4.07,20.129,2,28-20.86,3.526-40.34,15.244-58,23-82.2,36.106-153.33,86.3-204,154-16.87,22.538-43.17,50.364-50,81-43.09-4.986-45.81-55.254-31-93C1099.35,227.827,1167.05,157.166,1169,28Zm39,75h0Zm82,6c0.67,0.666,1.33,1.333,2,2C1291.33,110.333,1290.67,109.666,1290,109Zm3,2c1.49,2.553,1.48,2.485,4,4C1295.67,113.667,1294.33,112.333,1293,111Zm11,22c0.33,2.666.67,5.334,1,8C1304.67,138.334,1304.33,135.666,1304,133ZM1148,271c0.67,0.667,1.33,1.333,2,2C1149.33,272.333,1148.67,271.667,1148,271Zm10,2c0.67,0.333,1.33.667,2,1C1159.33,273.667,1158.67,273.333,1158,273Z"/>
    <path id="形狀_19" data-name="形狀 19" class="cls-7" d="M1825,498l63,3c-0.67.333-1.33,0.667-2,1-10.23,8.386-57.58,36.735-74,32-8.95-2.58-18.9-14.044-24-21v-7c0.67-.333,1.33-0.667,2-1Z"/>
    <path id="形狀_18" data-name="形狀 18" class="cls-7" d="M1396,499c29.9-.516,66.83-2.963,86,8-0.33,2-.67,4-1,6-17.78,40.527-77.49,6.987-100-12v-1Z"/>
    <path id="形狀_25" data-name="形狀 25" class="cls-6" d="M2068,97c28.64,16.3,51.02,88.194,53,118-36.33-18.665-76.67-44.335-113-63C2011.94,120.152,2048.02,113.018,2068,97Z"/>
    <path id="形狀_24" data-name="形狀 24" class="cls-6" d="M1240,122c17.8-.75,37.4-1.776,43,10,7.97,16.61-14.75,38.263-23,46-23.72,22.246-59.09,56.888-93,66,8.6-45.292,49.6-74,55-120Z"/>
    <path id="形狀_2" data-name="形狀 2" class="cls-7" d="M1637,672c135.46-1.973,243.28,43.79,292,128,80.97,139.97,3.48,178.153-14,195-20.51,19.77-53.34,28.79-82,40-49.41,19.34-106.12,32.08-165,42l-60-3c-57.46-10.05-108.36-16.65-155-35-50.5-19.88-102.19-43.034-118-97-11.36-38.768,2.07-87.706,14-112,36.45-74.251,99.8-117.591,185-143C1571.15,680.445,1608.76,673.46,1637,672Z"/>
    <path id="形狀_3" data-name="形狀 3" class="cls-7" d="M1162,722c24.64-.4,53.5,10.357,58,30,3.42,14.945-3.1,28.623-6,38-9.17,29.6-25.72,65.679-18,108,9.97,54.662,39.64,91.667,75,121q18.495,13.005,37,26v1c-51.29-4.54-169.21-38.27-187-70-29.85-53.223-30.46-182.633,4-230C1134.62,732.773,1146.62,729.925,1162,722Z"/>
    <path id="形狀_4" data-name="形狀 4" class="cls-7" d="M2098,742c88.05-1.058,92.65,140.571,69,218-9.51,31.147-23.5,55.13-47,72-14.1,10.12-116.57,26.56-143,27,0.67-1,1.33-2,2-3,48.61-19.74,92.37-84.468,103-144,8.93-50.026-40.54-120.411-21-150C2068.97,749.933,2084.49,748.846,2098,742Z"/>
    <path id="形狀_1" data-name="形狀 1" class="cls-8" d="M1156,1q36.99,11.5,74,23c54.52,13.951,121.76,11.3,160,41,14.16,11,25.14,29.909,31,49q3,18,6,36,14.505-4,29-8c27.36-7.709,55.92-11.254,87-17,76.25-14.095,179.2-10.719,251,5l75,19c6.9-109.737,94.56-104.222,190-125,21.28-4.632,73.87-26.84,88-19V41c3.73,24.465,5.42,46.854,12,68,21.66,69.649,58.19,126.265,86,191,10.37,24.139,29.34,66.294,14,100-9.63,21.173-28.92,24.22-47,37,8.45,19.537,15.35,41.817,21,64,8.42,33.039,8.29,65.937,23,91,30.2,51.45,83.85,90.08,100,153,11.78,45.889-4.31,106.886-17,139-36.49,92.342-101.6,137.56-197,171-25.36,8.89-55.09,19.05-85,22,0.67,1,1.33,2,2,3,22.24,10.54,54.14,61.08,47,102q-6.495,25.995-13,52c44.56,6.86,121.18,46.17,134,84,3.54,10.45,1.85,75.85-1,93q-2.505,31.995-5,64c-12.01,63.75-22.79,123.57-44,178-78.85,202.39-210.87,350.76-404,438-61.4,27.73-124.78,58.37-196,77v38c-166,76.4-590.72,68.48-762,1q-0.5-19.5-1-39-30-7.995-60-16c-54.41-16.94-104.7-33.83-153-55-212.815-93.28-356.452-235.08-438-460-16.608-45.81-28.152-96.05-39-149q-3.5-34.5-7-69c-5.589-33.92-5.451-88.65,6-112-19.806-29.19-37.575-59.99-49-98-51.271-170.6,60.432-288,182-325,42.617-12.969,111.283-20.691,162-8,114.646,28.688,201.823,110.745,262,195q17,26.49,34,53,8,15.495,16,31,57.493-4.005,115-8l82-3q86.491-2.505,173-5c5.26-49.52,46.05-71.97,78-96-102.56-28.55-187.711-100.028-218-202-9.078-30.562-20.518-82.785-9-120,5.967-19.279,17.547-38.15,28-54,24.99-37.9,56.65-71.76,75-116,7.04-16.966,6.31-38.621,11-58,2.25-9.3,17.13-55.887,16-57-18.99-11.579-37.44-17.144-46-39-13.36-34.1,6.3-75.489,16-98,27.41-63.619,63.72-119.432,85-188q6-30.5,12-61V7c1.33-1.666,2.67-3.334,4-5Zm14,27c1.44,121.028-66.07,196.436-103,283-19.63,46.016-23.26,85.938,24,105,0.67-.333,1.33-0.667,2-1,7.56-23.6,23.79-44.375,37-63,67.34-94.938,158.99-147.8,275-195,0.47-92.2-63.88-88.809-139-105C1232.78,44.841,1200.4,35.91,1170,28Zm953,0c-82.12,46.9-233.21-4.814-233,128,116.3,52.4,197.47,92.414,269,190,15.03,20.51,34.61,43.877,43,70,45.9-5.267,44.8-57.341,30-95-36.99-94.141-104.23-165.27-106-293h-3ZM1651,147l-38,1-78,8c-66.55,13.455-125.31,28.993-180,53-106.01,46.532-196.4,125.88-242,233-16,37.576-17.2,90.071-34,129-25.13,58.254-75.18,97.214-98,157-9.249,24.23-2.273,65.356,4,88,20.25,73.108,55.99,119.413,113,155-24.88-83.142-36.68-246.284,54-268,23.38-5.6,50.61,2.573,66,12,60.59,37.1-12.85,115.809-2,176,14.96,83.031,79.67,124.11,145,157,13.99,7.04,78.25,20.93,92,15-19.5-2.21-40.22-14.37-55-23-59.75-34.86-112.81-78.2-87-179q8.505-23.5,17-47c46.46-99.117,142.99-141.719,269-163,23.05-3.892,59.92-7.39,87-3l73,10c98.57,24.777,172.94,74.7,210,161,15.45,35.972,31.92,104.57,8,145-26.58,44.93-79.79,70.84-131,91q-24.495,7.995-49,16,64.5-3.495,129-7c56.67-18.28,119.82-81.975,135-143,17.15-68.941-66.97-159.011,10-193,16.18-7.143,43.41-9.428,62-3,88.49,30.605,77.65,209.275,39,287,76.41-23.19,127.84-88.068,149-168,6.21-23.447,14.85-64.731,7-93-14.77-53.217-69.52-97.7-97-144-15.28-25.742-16.01-56.092-24-91-8.26-36.1-17.59-68.712-37-102-80.7-138.409-207.23-212.687-385-255C1742.04,149.25,1697.58,152.81,1651,147Zm-6,526-38,2c-29.55,4.928-57.85,7.812-84,16-77.34,24.217-144.12,71.363-175,142-28.39,64.946-20.36,125.645,27,163,52.19,41.17,124.46,54.42,203,70,24.6,4.88,62.71,11.68,94,6,103.63-18.82,241.86-49.93,284-128,19.28-35.715-7.14-107.358-21-131C1881.89,722.425,1788.59,672.716,1645,673Zm-485,50c-13.84,7.187-25.23,10.148-34,22-37.54,50.759-33.86,193.562,3,242,5.54,7.277,13.78,8.1,23,12,28.2,11.93,58.17,23.49,90,33l69,15-39-27c-38.53-29.544-67-69.717-77-128-9.21-53.691,35.45-101.429,24-142C1213.54,730.655,1185.61,722.722,1160,723Zm941,19c-15.65,6.751-31.65,7.376-40,21-9.82,16.028.25,39.271,5,53,10.21,29.514,23.55,70.386,14,109-11.52,46.543-36.51,83.34-69,109l-34,25c44.56-1.48,92.62-12.45,129-25q6.495-1.005,13-2c26.01-15.04,39.71-44.879,49-77C2189.37,881.089,2182.63,741.188,2101,742ZM337,900l-37,4c-21.827,4.6-43.917,9.928-63,18-93.268,39.454-183.637,151.86-129,291,52.136,0.74,90.494-20.93,127-37,92.519-40.71,233.252-137.88,276-225l-31-19C442.322,909.944,396.591,900.146,337,900Zm192,63c-44.463,90.32-188.167,190.92-284,233-38.376,16.85-77.125,35.7-129,39,26.012,55.47,66.584,101.42,123,127,50,22.67,58.011,17,66,17q30.5-10.005,61-20c33.927-7.82,52.148-22.29,80-32q35-19.005,70-38c42.25-26.45,77.092-60.59,115-91,20.453-16.41,42.263-34.97,58-56q-14.5-23.505-29-47C628.5,1050.28,576.968,990.066,529,963Zm695,95c-0.33,1.67-.67,3.33-1,5-49.04.8-86.89,45.67-95,88-4.79,25,5.42,49.37,10,68,6.37,25.92-1.81,56.6,21,66,9.51,3.92,27.48,3.97,39,2,59.07-10.1,36.56-37.42,55-82,12.36-29.88,43.24-38.51,67-57,5.99-4.66,7.87-13.55,16-16q12,6.495,24,13l-18,36c-21.73,37.1-38.61,74.62-63,108q1.005,13.995,2,28c59.77,27.96,127.1,36.86,205,50q55.5,1.995,111,4c32.73,5.14,78.38,2.18,109-3,40.81-6.9,118.64-9.41,136-36,9.12-13.97,6.2-103.59,3-124q12.495-7.5,25-15c0.67,0.33,1.33.67,2,1,4.08,13.03,12.13,28.99,9,49-3.6,23.02-9.81,57-3,81,10.44,36.77,92.94,61.2,135,36-7.19-51.84,24.58-90.86,43-122,10.23-17.3,16.11-39.84,20-63,5.22-31.11-18.12-54.13-32-68-6.52-6.52-21.84-13.65-18-24C1778.8,1115.85,1444.42,1111.71,1224,1058ZM699,1167c-21.272,27.17-55.618,51.8-83,73-20.939,16.21-38.136,33.12-62,50-45.973,32.51-98.026,56.42-154,79q-34.5,12.495-69,25v1q39.5,5.505,79,11,32,2.505,64,5c83.165,12.52,220.446-49.8,251-90C725.876,1280.44,718.867,1182.28,699,1167Zm55,106c115.224-3.1,233.932-15.7,357-16-0.69-33.03-13.23-57.68-13-88-125.155.08-240.755,14.04-358,16v1C748.285,1211.08,752.782,1242.29,754,1273Zm544-75c-11.44,10.84-18.95,20.31-22,40h1v-2C1280.7,1232.49,1298.7,1198.87,1298,1198Zm780,63c-11.97,22.25-27.46,39.64-32,70-1.46,9.79,3,20.04,2,31,12.92,2.19,28.57,3.64,43,8,16.71,5.06,24.69,18.98,38,19,1.54-7.34,70.93-23.11,69-60C2179.64,1292.17,2121.32,1272.32,2078,1261ZM680,1382c-62.286,32.5-177.809,66.82-284,46q-53.495-7.995-107-16c-9.368-3.72-30.116-16.47-42-13h-2v1q44,12.495,88,25,72.993,13.995,146,28c64.277,12.76,129.554,11.87,197,23,49.948,8.24,103.295,3.72,156,12q49.5,2.505,99,5l91,3q72,1.005,144,2,78.495-1.005,157-2l90-3q49.5-2.505,99-5,72.99-5.505,146-11,39.495-3.495,79-7c80.8-14.25,163.36-19.51,238-38,31.33-7.76,95.14-15.56,117-31-14.31-4.81-48.77-28.81-59-16-58.36,24.82-150.02,15.31-177-35l-3,3c-16.57,6.8-31.74,17.28-51,23-108.99,32.4-332.95,21.61-437-7-37.27-10.25-115.17-21.21-115-66-40.98,22.95-114.98,23.73-134-20q-83.985,2.505-168,5-40.5,1.995-81,4-56,4.005-112,8C749.279,1335.92,739.439,1350.98,680,1382Zm-534-47c5.068,27.09,43.58,42.56,67,52,0.666-.67,1.333-1.33,2-2v-1C186.732,1375.1,167.341,1351.39,146,1335Zm-1,49c-2.676,128.71,40.5,234.64,80,324,100.673,227.78,304.821,345.99,558,422,54.734,16.43,110.117,22.96,171,34,56.02,10.16,119.44,5.1,179,15q29.49,0.495,59,1,36.495,0.495,73,1c68.07,0.01,137.17.19,194-14,310.41-77.54,548.14-199.22,668-474,37.42-85.78,70.14-185.25,70-307-20.8,10.82-40.86,24.48-64,34-93.99,38.67-206.56,50.08-319,71q-70.5,7.995-141,16c-68.9,11.56-139.63,2.75-211,14l-132,6h-46q-69.495.495-139,1-86.49-1.005-173-2-56.994-2.505-114-5-40.5-2.505-81-5c-60.134-9.66-124.361-7.78-182-18q-53.495-6.495-107-13C360.91,1459.77,235.965,1443.34,145,1384Zm700,791v11l44,12q44.5,7.995,89,16c46.88,8.75,93.98,4.17,144,12,31.17,4.88,86.92,7.13,119,2l95-3c76.58-12.34,149.54-14.52,211-39v-10c-81.34,26.76-179.36,34.99-290,35q-48-1.005-96-2c-42.71-6.76-86.03-.55-126-7C967.7,2191.14,902.474,2194.48,845,2175Z"/>
    <path id="形狀_6" data-name="形狀 6" class="cls-9" d="M1642,821c15.23,7.379,16.24,30.149,44,38-10.94,47.223-94.65,34.443-83-4C1619.95,851.78,1636.88,836.2,1642,821Z"/>
    <path id="形狀_5" data-name="形狀 5" class="cls-8" d="M1706,863c-4.4,65.1-116.73,61.521-126-3-24.65-2.822-40.39-14.122-57-25-0.67-2-1.33-4-2-6,1.97-5.622,3.35-7.439,7-11,17.86,1.146,25.27,15.1,40,20,31.9,10.617,59.8-18.423,60-45-12.43-3.5-40.06-21.176-26-40,15.79-21.146,77.25-11.043,85,9-0.72,17.391-17.29,27.809-31,32,7.95,33.323,42.96,66.626,85,40,8.45-5.352,9.36-18.855,16-26l9,1c3.42,1.616,3.35,1.628,5,5C1778.26,846.456,1736.64,862.845,1706,863Zm-63-43c-5.84,25.014-35.11,26.006-41,42,9.8,41.265,69.22,31.776,83-2C1662.82,851.253,1654.88,838.867,1643,820Z"/>
    <path id="形狀_7" data-name="形狀 7" class="cls-8" d="M1320,478c38.84,1.43,194.99-15.971,185,34-3.01,15.059-13.52,25.152-24,33-41.3,30.938-89.39-14.468-121-31-13.13-6.868-36.67-9.741-47-20q1.005-6,2-12C1316.67,480.667,1318.33,479.333,1320,478Zm104,20-44,2c0.33,0.667.67,1.333,1,2,24.55,8.326,44.84,24.818,72,34,11.97-4.313,28.01-14.883,30-29C1468.06,500,1445.66,498.208,1424,498Z"/>
    <path id="形狀_8" data-name="形狀 8" class="cls-8" d="M1820,477l108,4,22-2c5.39,2.441,6.99,6.2,7,14-1.33,2-2.67,4-4,6-40.49,7.374-109.04,65.77-143,58-17.88-4.092-59.34-37.975-41-63C1780.29,478.588,1799.96,484.622,1820,477Zm4,21c-13.07,4.74-28.32,1.417-37,10,7.57,49.27,84.37,10.464,102-8Z"/>
    <path id="形狀_9" data-name="形狀 9" class="cls-8" d="M1238,102c53.17-1.125,88.32,19.53,56,66-24.27,34.9-61.08,58.539-97,82-12.25,8-26.86,23.532-45,24-2.6-1.4-3.33-1.612-5-4-5.95-9-.83-30.9,2-39,11.32-32.412,30.14-60.475,45-90,3.79-7.527,6.85-33.792,10-36C1212.26,99.2,1225.28,107.413,1238,102Zm3,21-18,2c-3.46,36.811-43.12,78.367-54,117,37.63-19.838,102.15-63.8,115-104C1278.38,121.958,1262.98,122.2,1241,123Z"/>
    <path id="形狀_10" data-name="形狀 10" class="cls-8" d="M2065,81c30.25,5.777,57.21,74.484,68,103,3.65,9.641,10.01,30.348,5,43q-2.505,3.5-5,7c-27.06-.122-87.25-40.7-110-53-10.53-5.694-30.75-9.183-36-20C1976.8,120.509,2042.48,96.474,2065,81Zm3,27c-21.13,17.81-47.39,13.726-59,42,0.67,0.333,1.33.667,2,1q52.5,27.5,105,55C2112.6,181.841,2083.68,119.7,2068,108Z"/>
    <path id="形狀_11" data-name="形狀 11" class="cls-8" d="M1864,606c41.43-.622,91.21-2.6,118,13,0.67,3,1.33,6,2,9-2.26,3.294-3.62,7.985-8,9l-49-9-66-2c-1.33-1.667-2.67-3.334-4-5C1856.72,611.032,1858.58,609.918,1864,606Z"/>
    <path id="形狀_12" data-name="形狀 12" class="cls-8" d="M1889,643c29.09-.785,61.69,1.433,76,16-0.33,2.666-.67,5.334-1,8l-6,7-46-10c-19.19-3.073-31.73,6.61-47,4-1.33-2.666-2.67-5.334-4-8,0.87-5.777,2.44-7.41,5-11Z"/>
    <path id="形狀_13" data-name="形狀 13" class="cls-8" d="M1350,613c16.67-.485,59.17-5.168,65,6v10l-6,4-56,1c-18.85,2.837-45.78,11.472-61,7l-3-11C1299.16,611.9,1329.22,620.98,1350,613Z"/>
    <path id="形狀_14" data-name="形狀 14" class="cls-8" d="M1363,649c20.16-.638,38.41,1.927,48,12v7c-2.29,4.5-3.54,5.666-8,8-13.18-2.1-28.66-8.018-47-5-15.35,2.525-34.53,13.1-47,5-0.33-.667-0.67-1.333-1-2,0.33-3,.67-6,1-9C1316.95,650.214,1346.33,655.558,1363,649Z"/>
    <path id="形狀_15" data-name="形狀 15" class="cls-8" d="M333,287c52.54,0.72,69.549,79.51,50,129-21.12,53.467-97.761,90.745-49,163,6.51,9.646,13.578,19.394,23,26,14.848,10.41,33.709,6,52,10l4,8-4,11c-63.6,15.262-131.026-58.411-111-125,14.622-48.621,60.042-68.057,71-123,5.393-27.038-5.021-55.455-19-67-7.19-5.938-29.016-10.8-24-25C327.936,290,329.889,289.574,333,287Z"/>
    <path id="形狀_17" data-name="形狀 17" class="cls-8" d="M743,261c55.994-.235,100.564,97.245,75,153-12.861,28.05-48.964,40.617-54,76-5.982,42.029,57.55,36.826,59,75-2.274,5.211-4.633,7.246-8,11l-9-1c-7.389-3.8-4.435-11.255-10-16-28.407-24.221-76.351-47.51-42-104,12.105-19.907,37.5-31.191,45-55,10.611-33.664-12.322-95.814-29-109-7.816-6.18-18.318-7.268-30-10-1.921-3.694-4.349-8.786-2-14Z"/>
    <path id="形狀_16" data-name="形狀 16" class="cls-8" d="M509,272c64.191,0.8,100.433,49.786,80,117q-26,62.493-52,125c-6.166,19.914-8.826,46.954,3,62,13.238,16.842,40.223,15.159,66,20l4,6v10l-5,4c-13.782,3.835-33.751-1.827-45-5-102.236-28.838-20.68-150.605,1-206,5.883-15.032,15.285-39.316,12-60-3.952-24.879-18.372-37.975-39-46-10.432-4.058-27-2.391-32-12q0.5-5,1-10Z"/>
  </g>
</svg>
