<svg xmlns="http://www.w3.org/2000/svg" xmlns:xlink="http://www.w3.org/1999/xlink" width="499.97" height="500" viewBox="0 -70.051 1700 1700.102">
  <defs>
    <style>
      .cls-1 {
        fill: #f1c182;
      }

      .cls-1, .cls-2, .cls-3, .cls-4, .cls-5, .cls-6, .cls-7, .cls-8 {
        fill-rule: evenodd;
      }

      .cls-2 {
        fill: #f9f1d9;
      }

      .cls-3 {
        fill: #d3b47e;
      }

      .cls-4 {
        fill: #fff;
      }

      .cls-5 {
        fill: #c09b61;
      }

      .cls-6 {
        fill: #ecb5a0;
      }

      .cls-7 {
        fill: #b4d245;
      }

      .cls-8 {
        fill: #aa7f4d;
      }
    </style>
    <clipPath id="clip-path">
      <rect width="1700" height="1560"/>
    </clipPath>
  </defs>
  <g clip-path="url(#clip-path)">
    <path id="形狀_26" data-name="形狀 26" class="cls-1" d="M402,482c129,40.592,135.562,135.292,146,133,34.226-7.516,88.729-373.653,375.645-434.765C1139.08,134.349,1336.36,168.423,1436,294c156.49,197.224,245.18,379.692,244,467-30,82.666-60,217.334-342,214-107.71,37.98-136.72,126.62-223,183-23.23,15.18-286.5,138.18-295,167-1.537,7.69-213.024,55.79-294-11-83.688-69.03-159.538-221.31-161-214-16.766-13.67-215.579-88.13-256-146C-57.74,715.283,85.824,576.1,174,521c21.91-13.692,48.862-31.075,77-38C263.332,481.333,365.668,465.666,402,482Z"/>
    <path id="形狀_25" data-name="形狀 25" class="cls-2" d="M486,570c15.455,0.562,18.345,7.03,25,16,30.923,41.676-2.215,72.916-10,117-3.461,19.6,7.476,52.572,2,68l-13,17-31,11c-25.667,11.144-49.34,27.432-70,44-41.585,33.347-84.917,111.351-104,167q-3.5,16.5-7,33c-54.024-23.57-118.71-55.219-152-100-0.831-47.939,12.825-87.148,29-119,48.625-95.756,142.358-187.348,242-231,16.038-7.026,34.321-12.19,53-16C463.363,574.274,476.08,575.678,486,570Z"/>
    <path id="形狀_24" data-name="形狀 24" class="cls-2" d="M647,956c36.311,6.99,70.777,22.071,109,31l77,12c-0.333.667-.667,1.33-1,2-37.66,15.39-104.16,73.32-129,104q-22.5,18.495-45,37c-38.812,48.2-85.655,102.35-96,177-0.667.33-1.333,0.67-2,1-57.014-25.06-87.955-84.76-119-136,19.738-88.61,73.163-154.21,140-196C601.316,975.3,626,969.079,647,956Z"/>
    <path id="形狀_23" data-name="形狀 23" class="cls-3" d="M1624,444,905,988c68.66,2,145.34,10,214,12,10.55,40.78,37.83,80.66,61,111,10,10.33,22,20.67,32,31,6.92,10.23,4.87,15.2,15,22,10.67,5.33,17.33,24.67,28,30,18.41,13.59,39.79,19.62,60,32,14.33,7,40.67,14,55,21,15.76,19.43,42.67,93.68,12,119-12.73,10.51-34.45,27.26-49,31-24.44,6.29-58.37,3.65-87,9-18.24,3.41-32.06-16.06-42.48-6.27-19.76,1.3-48.74-2.33-69.52-4.73-60.84-11.06-127.72,4.44-187-6-23.242-4.09-67.657-7.08-93-15-118.128-36.9-13.445-206.27,45-250q-3-3.495-6-7c9.647-18.23,14.631-45.62,19-68C915.752,1029.78,897.635,1006.77,905,988Z"/>
    <path id="形狀_22" data-name="形狀 22" class="cls-4" d="M1500,623c87.73-.777,110.76,149.408,85,234-19.06,62.6-70.18,81.03-136,96,21.39-40.592,45.2-75.446,50-134,4.09-49.971-25.39-86.8-38-124-7.84-23.122-2.97-49.517,12-61C1480.7,628.091,1490.19,627.29,1500,623Z"/>
    <path id="形狀_21" data-name="形狀 21" class="cls-4" d="M700,644c39.664-.9,63.574,30.056,54,76-11.065,53.1-59.218,129.159-46,192,2.862,13.607,10.152,24.188,14,36-33.85-3.215-113.485-40.021-127-62-8.576-13.946-3.484-35.072-7-54-13.57-73.045,40.836-145.363,80-173C677.642,652.2,688.854,649.9,700,644Z"/>
    <path id="形狀_20" data-name="形狀 20" class="cls-4" d="M1086,637c123.66-2.074,222.44,78.879,259,164,31.29,72.85,2.45,123.313-55,148-11.83,5.085-28.78,15.494-44,13-34.2,4.52-65.8,18.814-124,14-7.36.271-15.48,0.182-20-2,0.33,1.666.67,3.333,1,5-117.374,1.786-257.375-6.065-274-105-5.582-33.217,9.848-63.148,20-83,32.616-63.778,86.839-110.968,156-138q27.99-7,56-14Z"/>
    <path id="形狀_19" data-name="形狀 19" class="cls-4" d="M1236,454c7.32-.334,18.86-1.158,23,2h-2c-14.12,11.962-37.77,21.151-62,22v-3C1203.82,457.084,1216.55,461.593,1236,454Z"/>
    <path id="形狀_18" data-name="形狀 18" class="cls-4" d="M917,443c14.569-.639,34.445-1.694,40,7v5q-1,2-2,4c-18.311,5.531-54.243-.97-68-11Z"/>
    <path id="形狀_17" data-name="形狀 17" class="cls-4" d="M1606,168,1448.9,37.349C1445.67,55.667,1461.33,54.333,1463,55c3.98,20.524.49,41.535,8,59,14.27,33.18,25.5,64.375,42,95,13.82,25.651,30.25,50.363,42,79,14.37,35.028,7.6,75.938-20,90-15.3-9.357-22.69-33.252-34-47-24.5-29.774-50.83-58.915-80-84-25.13-21.612-59.28-24.489-90-40-12.96-6.542-48.41-18.819-58-29,6.39-13.983,34.64-43.53,46-53C1356.94,93.386,1408.81,77.988,1448.9,37.349Z"/>
    <path id="形狀_16" data-name="形狀 16" class="cls-4" d="M697,82c52.5,32.062,103.823,66.5,145,110q-0.5,1-1,2c-70.224,21.1-137.859,98.579-174,156l-37,67c-17.062-7.614-55.587-19.674-61-38-6.5-22,23.544-76.362,30.7-90.9C633.564,219.293,674.918,159.707,697,82Z"/>
    <path id="形狀_15" data-name="形狀 15" class="cls-5" d="M1326,1372q7.005,0.495,14,1c0.33,1,.67,2,1,3l-24,3c12.33,11.67,30.67,17.33,43,29,30.44,39.18,17.61,92.69-23,109-13.43,5.39-56.79,6.71-73,3-59.91-13.7-58.42-61.93-53-128C1234.38,1398.72,1312.61,1381.14,1326,1372Z"/>
    <path id="形狀_14" data-name="形狀 14" class="cls-5" d="M948,1378c2.714,79.27-26.916,138.96-113,120-14.381-3.17-27.276-5.32-37-13-31.3-24.72,34.622-103.4,42-123,18.678,2.09,27.9,14.82,46,18,26.833,4.72,44.872-7.98,69-3v1h-7Z"/>
    <path id="形狀_13" data-name="形狀 13" class="cls-5" d="M1310,1078c-0.33-2,11.33,2,11,0-3.58-7.72-10.49-9.23-19-12-1.84-30.57-18.35-41.12-30-61,1-.67,2-1.33,3-2,24.52-12.609,62.53-9.167,78,0,46.91,27.8,134.96,134.8,77,218-33.78,48.49-148.31-10.27-169-39-7.7-10.7-30.89-28.91-38-40-4.09-6.37-1.87-23.35,0-32,6.95-32.15,37.27-40.52,72-25,1.67-3.67,9.33,2.67,11-1C1311.33,1084,1304.67,1078,1310,1078Z"/>
    <path id="形狀_12" data-name="形狀 12" class="cls-5" d="M883,1002q12,1,24,2c-1.045,14.84,3.538,20.43,6,30,4.234,16.46-13.38,77.77-20,84q-7.5-7.005-15-14c-38.363,30.22-56.907,82.87-96,113-21.912,16.89-48.879,19.49-66-4-31.773-43.59-11.437-63.24,15-96C771.129,1067.27,832.4,1041.5,883,1002Z"/>
    <path id="形狀_11" data-name="形狀 11" class="cls-5" d="M1423,122c13.08,8.314,46.58,87.084,41,121-0.33,0-.67-8-1-8-32.9-15.592-73.69-43.426-102-52,0.62-4.643,13.79-22.262,17-27C1391.67,144.668,1409.33,133.332,1423,122Z"/>
    <path id="形狀_10" data-name="形狀 10" class="cls-5" d="M715,168l23,4,4,5c-1.323,24.326-57.675,75.982-77,84v-1C678.237,225.79,696.787,193.843,715,168Z"/>
    <path id="形狀_9" data-name="形狀 9" class="cls-6" d="M1081,790c13.99,14.766,17.32,31.146,44,34v4l-3,20c-4.79-1.111-11.55-1.746-15,1-5.56,2.99-9.49,12.079-12,18,3.78,8.079,12.4,27.217,4,38-1.98,4.41-4.45,6.2-9,8-31.2,8.985-36.99-36.621-41-63-0.96-6.337-3.71-21.082-1-24C1059.2,814.418,1074.84,806.584,1081,790Z"/>
    <path id="形狀_8" data-name="形狀 8" class="cls-7" d="M1121,871c18.11,3.474,33.07,23.774,46,34,50.09,39.634,89.79,97.81,119,158-64.75-1.07-66.31,11.41-87,54-2-1.67-4-3.33-6-5q-15-22.005-30-44C1131.79,1016.93,1108.84,948.707,1121,871Z"/>
    <path id="形狀_7" data-name="形狀 7" class="cls-8" d="M1425,107l9,4c13.2,36.908,37.17,64.255,48,104,4.46,16.375,5.78,39.9-8,46-38.01-12.559-59.74-37.429-89-58-9.45-6.644-31-11.21-37-21C1334.06,162.473,1411.04,114.381,1425,107Zm-6,27q-23.505,19.5-47,39c0.67,0.333,1.33.667,2,1,21.12,1.726,62.8,46.3,88,59C1462.07,210.047,1431.54,143.02,1419,134Z"/>
    <path id="形狀_6" data-name="形狀 6" class="cls-8" d="M706,148c44.328-1.057,72.914,17.711,48,57-26.26,41.411-71.25,63.932-107,96l-7-1-7-6C633.488,258.3,685.511,166.15,706,148Zm10,21c-17.351,25.894-33.536,56.807-49,89,19.895-11.079,70.761-54.834,74-80C734.458,171.41,727.737,170.979,716,169Z"/>
    <path id="形狀_5" data-name="形狀 5" class="cls-8" d="M1257,557c34.07-.854,85.16-4.735,95,19,3.42,11.378-2.72,23.176-10,27-11.55,6.071-27.73-2.885-41-4-31.15-2.616-104.07,15.061-68-35Z"/>
    <path id="形狀_4" data-name="形狀 4" class="cls-8" d="M853,553c28.482-.891,90.846-2.112,85,30-5.457,29.974-41.375,13-71,13-13.743,0-31.605,6.01-39,0-5.925-2.688-7.049-6.224-9-13C811.7,557.641,836.012,558.643,853,553Z"/>
    <path id="形狀_3" data-name="形狀 3" class="cls-8" d="M1234,433c22.65-.762,57.84-2,65,13,3.3,14.963-16.57,19.329-26,25-21.69,13.042-69.27,42.068-103,22C1158.13,446.773,1203.24,445,1234,433Zm1,21c-20.35,7.774-34.4,4.99-44,23,29.25,3.118,47.49-12.514,68-21v-2h-24Z"/>
    <path id="形狀_2" data-name="形狀 2" class="cls-8" d="M919,422c31.7-1.129,81.46,11.862,56,46-19.547,26.213-108.453,3.975-132-10-2.134-9.643.724-12.615,5-18,11.791-4.436,22.8-10.928,37-14Zm-2,21-31,5v1c20.739,3.944,50.4,20.058,71,8q0.5-1.5,1-3-0.5-3-1-6C946.657,443.315,933.1,442.825,917,443Z"/>
    <path id="形狀_1" data-name="形狀 1" class="cls-8" d="M978,1407c0.671,62.08-32.3,104.88-80,119-42.032,12.44-105.8.28-125-24-40.936-51.76,20.873-100.61,31-139-4.056-4.21-4.455-10.05-11-12q-45.5,7.995-91,16c-30.766,5.41-74.248,3.3-101-3-108.555-25.56-145.772-100.62-197-182-15.86-25.19-33.073-50.94-56-69-38.086-30-91.788-42.78-135-68C108.222,983.84,48.205,926.384,24,783c-8.3-49.18,5.676-103.173,18-138C86.873,518.191,223.474,413.758,403,470c69.27,21.7,106.539,68.561,147,119h1q11-20.5,22-41l44-105c-28.158-5.7-85.141-36.825-78-77,10.944-61.579,60.851-125.233,85-180q22.5-55.995,45-112c3.207-10.587-.644-29.62,4-41,55.117,32.04,167.811,95.693,197,148,38.1-16.624,84.011-22.025,131-30l56-3,70-1c18.96,2.94,130.52,17.178,131,17,9.37-21.878,34.95-38.173,53-52,37.47-28.7,75.94-55.306,117-81q22.005-13.5,44-27c-0.49,40.6,11.59,63.135,23,91,14.31,34.945,26.66,69.6,45,101,13.34,22.842,28.37,46.666,39,72,24.3,57.882,16.01,108.626-30,137v1c27.46,33.267,46.56,92.067,65,134,22.3,50.7,58.07,89.3,71,150,9.41,44.173-2.6,97.164-14,129-33.66,94-109.58,133.364-210,161-24.23,6.668-52.52,14.284-81,15,0.33,0.667.67,1.333,1,2,52.11,23.17,115.61,150.67,72,226-17.56,30.34-28,25.17-61,38,25.17,50.59,22.96,100.35-16,134,75.05,102.18-57.29,184.6-151,128-29.58-17.87-34.61-58.69-34-107C1125.23,1410.13,1050.33,1408.43,978,1407ZM1446,54c-50.52,42.413-119.37,67.025-159,120q25.5,10.5,51,21c30.34,13.356,58.97,33.52,84,53,30.38,23.648,59.49,55.574,82,87q15,22,30,44c0.67-.667,1.33-1.333,2-2,28.14-9.6,30.88-50.986,21-82-10.06-31.567-28.37-59.359-44-86q-19.5-41.5-39-83Q1460.005,90,1446,54ZM697,83c-21.346,63.615-46.214,125.264-78,180-17.421,30-42.879,67.137-50,104-4.5,23.316,44.491,46.084,62,49,25.5-78.726,132.426-197.52,211-223l-3-3C827.559,166.718,724.71,94.194,697,83Zm372,94-79,6c-48.457,9.176-92.373,17.878-132,35C754.85,262.569,689.159,354.528,644,457L595,573c-35.614,61.2-84.889,124.256-55,221,6.373,20.63,12.444,45.439,27,58-5.844-100.237,23.283-158.248,82-202,21.373-15.925,62.921-40.739,96-18,26.642,18.314,38.252,64.14,27,108-13.109,51.1-85.42,180.935-12,217l38,6,68,8q-0.5-1-1-2c-63.135-20.371-79.169-111.514-50-179,35-80.985,104.584-137.941,191-168,27-9.39,69.19-20.617,109-14,121.82,20.249,212.17,77.213,255,175,33.02,75.391,14.19,165.661-56,188v1c29.06-1.328,87.49-4.438,108-16q10.995-18,22-36c15.57-26.477,26.88-56.444,33-92,12.44-72.317-92.84-164.762-11-215,30.68-18.835,75.13-9.788,96,11,41.16,40.993,73.93,161.614,45,245,0.67-.333,1.33-0.667,2-1l15-20c10.59-16.844,18.82-37.174,25-58,33.34-112.276-41.36-187.495-74-262C1482.35,316.492,1375.49,176.3,1069,177ZM285,487l-29,4-55,17C108.128,548.573,23.873,677.054,61,823c9.7,38.114,29.278,63.455,43,94h2c6.811-145.648,153.049-270.976,252-329a269.69,269.69,0,0,1,72-29c15.935-3.76,36.483-.942,47-10l-43-32C395.712,493.775,346.967,487.029,285,487Zm209,81c-15.431,8.57-37.6,7.1-57,12-23.173,5.849-45.412,14.887-64,26-91.718,54.834-168.739,121.5-218,219-8.542,16.906-36.894,89.369-29,118,2.839,10.3,25.611,23.676,34,30,33.306,25.108,73.63,56.75,118,69v-2c8.172-19.09,9.44-39.4,17-57,36.723-85.5,107.651-182.852,210-201-2.31-24.125-9.249-54.661-4-82,7.85-40.883,39.773-73.226,11-112C506.693,580.849,502.406,571.976,494,568Zm1008,55c-11.56,4.763-21.29,5.193-30,12-15.94,12.458-17.21,40.207-10,63,10.77,34.066,44.94,79.006,37,127-9.02,54.5-28.6,86.889-49,127h3c51.68-16.635,110.97-26.638,130-76C1615.14,792.626,1589.03,622.533,1502,623Zm-429,15c-23.42,9.007-48.81,7.685-70,16-62.424,24.5-110.891,65.938-144,120-15.684,25.61-38.978,66.938-28,111,21.233,85.226,162.009,94.276,272,94-4.49-13.23-6.97-27.441-7-45-61.2,6.285-60.47-51.017-70-101-16.62.559-25.37-5.592-30-17,2.456-6.192,4.04-8.287,10-11,8.23,1.463,10.33,7.407,18,8,25.51,1.972,44.08-45.664,55-62-10.49-3.11-23.04-11.187-27-21-11.69-40.445,81.91-51.794,84-3-7.04,16.389-22.87,20.849-38,29-0.81,23.487,12.34,60.566,40,45,10.94-6.156,10.63-23.377,17-34,4.61-1.213,7.06-1.854,12-1,1.67,1.666,3.33,3.333,5,5-0.01,21.418-9.98,43.417-26,49q-1.995,19.5-4,39c33.65,14.8,88.1,72.216,106,104,93.02-9.236,137.95-94.922,87-182C1286.12,697.458,1206.2,637.566,1073,638Zm-369,6-28,10c-44.282,26.87-100.845,100.532-88,181q3,24.5,6,49c12.039,24.465,95.4,56.519,129,65v-1c-43.142-70.017,13.563-153.495,29-219C762.509,684.407,746.06,643.937,704,644Zm377,148c-6.83,16.815-22.4,24.056-34,36,8.86,35.812-.56,83.521,41,85,5.05-2.426,8.64-4.838,11-10,7.36-14.253-3.26-27.516-4-41,5.37-4.5,6.36-11.692,13-15l14-1q1.005-10.5,2-21C1098.53,821.3,1094.27,807.215,1081,792ZM507,804c-28.373,17.2-58.258,21.3-86,41-56.072,39.811-105.584,127.2-123,206,33.95,3.96,84.82,48.53,104,73q12,16.5,24,33c13.52-76.72,86.161-151.46,143-187l54-28c-37.3-14.745-70.039-50.313-90-83C527.874,850.606,512.736,806.668,507,804Zm615,68c-11.06,116.228,24.49,175.23,76,243,0.67-.33,1.33-0.67,2-1,2.02-34.17,42.04-63.14,85-51-31.11-66.073-76.76-125.629-132-168C1143.17,887.459,1134.69,876.5,1122,872ZM648,956l-63,30c-54.251,33.69-138.395,119.14-143,199,31.046,50.6,61.813,110.83,119,135,21.037-75.88,52.736-123.33,95-176,11.593-14.45,31.036-21.31,43-35,29.6-33.86,90.966-91.48,134-109v-2c-48.636.1-98.682-13.3-139-26Zm675,129q-7.5.495-15,1c-2.86,2.09-3.51,8.48-6,10l-16-3c-27.67-4.92-50.91,4.46-56,23-2.57,9.37-.22,24.48,4,31,6.6,10.2,24.79,13.24,35,20,28.94,19.15,51.54,44.26,88,57,19.93,6.97,49.37,9.16,62-6,21.32-25.6,19.91-74.82,8-108-20.49-57.1-69.78-125.633-153-106,3.94,13.83,18.6,21.08,24,33q2.505,13.5,5,27c0.67,0.33,1.33.67,2,1,7.68,4.41,12.33,6.01,18,12v8ZM947,1377c96.42-.5,195.06,1.37,277,14-2.01,31.04-7,71.94,7,95,18.13,29.86,87.09,27.39,114,8,43.06-31.03,19.5-73.65-12-99-6.12-4.93-14.15-8.86-17-17,74.22-2.16,75.72-66.79,42-114-10.08-14.11-30.88-16.96-46-26-21.39-12.79-39.44-30.01-59-44q-16.005-7.995-32-16c-9.78-7.01-10.96-16.03-18-26-7.14-10.11-20.18-17.96-28-28-25.21-32.36-50.29-72.4-64-115q-82.485-1-165-2l-64-3q-14,9.5-28,19c-32.23,20.32-61.027,42.07-90,65-16.845,13.33-69.877,58.03-65,88,5.569,34.23,39.433,69.08,75,45,43.91-29.72,62.011-86.23,103-118h3c5.558,7.13,16.381,12.55,19,22-31.9,27.02-94.525,127.07-81,194,4.337,21.46,19.974,28.78,24,43-14.215,28.07-35.051,51.68-47,82-4.673,11.86-6.3,31.12,3,39,10.079,8.54,23.358,10.76,39,14C922.239,1514.67,948.239,1455.25,947,1377ZM668,1164c-24.675,38.13-55.407,71.93-74,117-3.627,8.79-16.772,40.75-8,49l52,9c45.156,7.43,113.72-10.13,150-18-3.89-27.48,1.676-55.34,7-77-59.875,38.38-101.757,4.27-123-49Z"/>
  </g>
</svg>
