<svg xmlns="http://www.w3.org/2000/svg" xmlns:xlink="http://www.w3.org/1999/xlink" width="499.997" height="500" viewBox="0 -103.506 1929 1929.012">
  <defs>
    <style>
      .cls-1 {
        fill: #f1c182;
      }

      .cls-1, .cls-2, .cls-3, .cls-4, .cls-5, .cls-6 {
        fill-rule: evenodd;
      }

      .cls-2 {
        fill: #d3b47e;
      }

      .cls-3 {
        fill: #f9f1d9;
      }

      .cls-4 {
        fill: #c09b61;
      }

      .cls-5 {
        fill: #fff;
      }

      .cls-6 {
        fill: #aa7f4d;
      }
    </style>
    <clipPath id="clip-path">
      <rect width="1929" height="1722"/>
    </clipPath>
  </defs>
  <g clip-path="url(#clip-path)">
    <path id="形狀_25" data-name="形狀 25" class="cls-1" d="M1248,611c171.64,72.067,114.61,300.809,121,321,3.33,7.333,398.73-179.333,514,96,32.63,142.75-18.45,357.95-260,531-359.94,168.59-677.99,127.3-781,70-115.621-64.31-316.72-264.35-552-319,3.666-19.66-186.7-33.34-241-205C34.193,960.567,194.855,513.148,213,496,385.821,332.68,496.735,326.7,816.815,280.83,964,250.705,1234.82,615.625,1248,611Z"/>
    <path id="形狀_26" data-name="形狀 26" class="cls-2" d="M492,1365q-6.5,1.005-13,2c-5.117-14.57-15.492-22.15-18-41,133.164-3.9,253.838-41.79,371-70v1c-23.487,30.94-58.324,52.87-82,84-11.553,15.19-16.53,36.84-27,51-4.151,5.61-24.659,9.73-32,19-52.43-19.62-106.384,1.82-139,25-1-.67-2-1.33-3-2-9.206-26.76-39.268-34.62-57-53v-16Z"/>
    <path id="形狀_24" data-name="形狀 24" class="cls-3" d="M1482,981c73.17,10.261,185.66,82.32,223,132,20.36,27.09,36.68,55.06,57,83,19.05,26.19,71.31,100.79,57,153q-7.995,12.495-16,25c-26.77,42.31-58.68,83.2-97,114-24.33,19.55-59.89,59.45-92,68-5.3-12.35,2.96-34.25,0-52-4.99-29.89-7.02-58.4-15-85-37.32-124.4-107.45-269.95-205-333v-3c24.07-18.56,40.42-50.81,59-75C1461.14,997.4,1473.71,991.059,1482,981Z"/>
    <path id="形狀_23" data-name="形狀 23" class="cls-3" d="M1181,1164c43.15,0.45,58.54,55.11,72,86,34.68,79.61,75.25,238.87,44,352-6.66,24.1-21.33,31.25-28,47-73.9,6.67-161.87,18.14-242,8,8.95-20.08,7.7-45.96,12-72,14.58-88.39,6.07-204.28-12-281-6.28-26.65-27.772-75.95-26-99,35.03-9.9,72.75-21.35,112-30Q1146.99,1169.495,1181,1164Z"/>
    <path id="形狀_22" data-name="形狀 22" class="cls-4" d="M795,1293h2q-14,23.505-28,47c-19.118,44.08-47.048,150.67-27,210-3.778-1.87-5.722-4.76-8-8-56.048,39.53-166.922,14.72-178-49-6.649-38.24,60.649-68.31,103-61q16,4.995,32,10,7-12,14-24-8-3.495-16-7c1.333-1.67,2.667-3.33,4-5,9.71-4.29,14.238-11.11,28-12C730.1,1348.34,768.234,1321.88,795,1293Z"/>
    <path id="形狀_21" data-name="形狀 21" class="cls-4" d="M296,1320q30.5,3.495,61,7c34.367,5.28,71.36-.94,105-1,3,18.8,13.607,26.91,19,42-11.161,3.89-17.294,14.66-23,24l2,3c17.377,6.75,59.184,38.19,66,55,12.577,31.01-30.066,57.71-53,63-18.638,4.3-42.513-.22-57-4-64.855-16.94-108.442-52.47-125-117-6.3-24.56,8.392-64.43,7-69C294.963,1321.06,296.956,1322.67,296,1320Z"/>
    <path id="形狀_18" data-name="形狀 18" class="cls-5" d="M676,266c0.087-44.431,61.975-83.162,85-111,9.131-11.039,20.532-42.41,32-48,82.671,53.844,179.715,71.9,224,166,11.25,23.914,29.08,55.849,22,93h-4c-27.41-28.547-62.613-45-99-65-11.173-6.142-20.55-15.739-34-20-38.295-12.132-78.36-10.682-120-19C745.874,254.783,710.24,265.955,676,266Z"/>
    <path id="形狀_17" data-name="形狀 17" class="cls-5" d="M100,335l42,13,59-1c26.086,4.248,110.846,19.759,118,41,4.288,12.731-74.326,53.082-84,63-40.436,41.453-96.044,133.171-109,200-17.63-2.358-31.9-15.548-41-27-56.912-71.644-24-152.34-2-231l12-57Z"/>
    <path id="形狀_20" data-name="形狀 20" class="cls-4" d="M789,178c8.332,0.333,18.668-1.333,27-1,27.934,6.66,90.532,39.349,106,58v1c-46.691-6.55-100.062-8.024-152-13q0.5-1.5,1-3C780.4,213.018,787.214,192.229,789,178Z"/>
    <path id="形狀_19" data-name="形狀 19" class="cls-4" d="M185,414c1.667,0.333,13.333,8.667,15,9-17,28-30,60-47,88-8,12.332-30,30.668-38,43-0.333,0-.667-16-1-16,0-.333-2,1.333-2,1-3.188-20.817,15.679-52.45,21-78,1.961-9.417-6.38-42.253-4-45C142.942,408.194,162.2,404.727,185,414Z"/>
    <path id="形狀_16" data-name="形狀 16" class="cls-5" d="M840,562l48,1c-5.8,8.928-81.374,41.2-96,24C808.233,558.132,820.562,576.146,840,562Z"/>
    <path id="形狀_15" data-name="形狀 15" class="cls-5" d="M416,674c10.834-.556,20.3-0.638,25,5,3.394,1.947,4.534,4.271,7,7,0.1,11.307-3.347,13.123-8,19l-30,11-67,13-2-1v-3c16.432-14.882,30.843-30.486,51-42Z"/>
    <path id="形狀_14" data-name="形狀 14" class="cls-5" d="M260,966c29.012-.136,49.871,1.188,59,20,6.129,12.629,1.26,48.17-1,60-7.551,39.51,1.955,86.8,11,114,12.6,37.88,33.941,75.53,58,103,9.654,11.02,33.921,21.09,39,35-56.708.35-108.171-2.05-150-14l-22-3c-17.293-8.72-29.791-36.55-39-54-24.527-46.48-65.669-148.93-32-217,9.454-19.114,29.346-32.06,51-39Z"/>
    <path id="形狀_13" data-name="形狀 13" class="cls-5" d="M1162,700c16.56-.111,37.91-2.139,50,3,56.1,23.855,79.21,99.1,92,167,7,37.138-13.69,114.7-24,140-4.13,10.14-15.77,15.7-23,23q-13.995,16.005-28,32c-19.39,17.49-69.76,47.96-97,55v-1c18.1-44.83,65.84-85.48,52-159-13.92-73.938-41.18-106.131-65-164-7.93-19.255-13.95-51.94-2-72C1126.03,708.839,1145.76,708.369,1162,700Z"/>
    <path id="形狀_12" data-name="形狀 12" class="cls-5" d="M750,802c143.842-1.663,292.29,1.525,329,108,5.43,15.746,11.88,45.7,7,70-24.07,119.89-202.941,221.35-324,248-105.627,23.25-234.055.02-298-45-56.727-39.94-67.022-101.6-29-167,43.256-74.4,133.27-157.452,215-193,18.7-8.133,40.074-12.664,62-17Z"/>
    <path id="形狀_11" data-name="形狀 11" class="cls-6" d="M786,165c52.946-1.5,113.954,26.68,144,50,11.758,9.126,38.962,32.944,18,47-31.784-4.494-66.826-9.5-102-15l-99-5-6-6c0.87-23.564,20.661-30.022,30-45q2-11,4-22Zm8,20c-0.567,18.519-13.688,25.076-21,37l104,6,42,5h-2C899.277,214.694,828.511,185.535,794,185Z"/>
    <path id="形狀_10" data-name="形狀 10" class="cls-6" d="M184,396c15.444-.328,31.778-0.588,40,5,2.188,18.089-15.24,34.076-23,47-26.027,43.348-48.791,96.56-86,129l-10-1-5-3c-4.565-44.475,12.922-74.543,21-109,4.434-18.914-8.195-38.141-5-47C125.915,397.867,162.461,404.43,184,396Zm-7,22-36,9c7.114,44.023-15.858,71.159-19,107l2-1,70-115H177Z"/>
    <path id="形狀_9" data-name="形狀 9" class="cls-6" d="M957,655c24.29-1.114,33.44,21.118,21,38L871,717c-15.1,4.607-31.343,15.346-50,12-22.659-21.483-9.093-35.577,15-44,22.915-8.011,48.994-14.726,74-21Z"/>
    <path id="形狀_8" data-name="形狀 8" class="cls-6" d="M461,796c23.016-1.169,28.446,14.935,23,33-20.969,15.625-54.893,19.869-81,30l-62,27c-14.778,4.385-32.135-10.263-28-24,2.823-16.243,20.1-17.934,33-24l76-30Z"/>
    <path id="形狀_7" data-name="形狀 7" class="cls-6" d="M419,651c32.965-.619,68.98,29.318,45,61-18.872,24.933-73.124,27.947-111,37-9.56,2.285-27.906,14.122-37,10l-7-6c0.856-45.18,47.773-79.752,81-94Zm3,22c-33.222,14.251-65.309,24.955-82,55v1c28.649-2.349,107.617-14,108-42C443.42,677.45,436.631,672.609,422,673Z"/>
    <path id="形狀_6" data-name="形狀 6" class="cls-6" d="M845,539c44.833-.942,75.9,1.813,96,25,0.058,7.5-1.381,9.768-4,14-45.02,5.421-121.142,53.535-162,28-12.56-38.176,14-56.729,45-64Zm4,21c-31.211,11.46-40.393-1.79-58,26q0.5,2.5,1,5c28.921,13.184,79.6-19.292,103-27v-1Z"/>
    <path id="形狀_5" data-name="形狀 5" class="cls-6" d="M892,855c37.216,0.77-4.263,55.918-12,62-37.7,29.633-114.926,31.308-161,8,0.259,58.553-100.329,117.4-158,79q-1-4.5-2-9c1.5-3.5,1.983-5,5-7l3-2c15.718,3.164,31.421,13.33,54,9,29.855-5.726,70.484-34.117,76-64-18.351-2.808-58.519-24.43-40-49,8.218-10.9,66.049-34.6,81-15,11.5,15.07-3.364,29.542-7,41,45.459,14.189,99.107,21.351,136-8C880.67,889.124,880.214,867.6,892,855Z"/>
    <path id="形狀_4" data-name="形狀 4" class="cls-6" d="M1630,6c20.93-.355,36.99,5.341,55,9,33.95,6.9,68.93,7.581,99,16,14.75,4.131,38.24,7.315,33,30-3.88,16.8-28.72,23.075-42,31-29.04,17.334-63.85,37.562-84,64,23.49,1.168,127.46,9.5,138,17,4.03,13.2,3.01,27.763-8,34-16.09,9.117-113.36-5.5-136-9-16.16-2.5-35.55,1.446-49-2-36.9-48.679,77.09-106.6,101-131V64C1700.53,63.972,1573.14,51.6,1630,6Z"/>
    <path id="形狀_3" data-name="形狀 3" class="cls-6" d="M1423,149c45.59-1.1,132.5-.168,135,39-6.86,16.255-22.75,22.309-33,35q-18.495,23.5-37,47c27.3-.853,104.77.078,79,38l-15,9c-5.84,1.193-114.37-6.376-117-8-6.81-4.2-10.1-11.672-10-23,16.48-33.779,44.98-61.167,67-90v-1c-37.43-.013-93.58,6.16-81-38Z"/>
    <path id="形狀_2" data-name="形狀 2" class="cls-6" d="M1233,247c38.52-.673,117.04-2.212,123,26,3.7,17.53-12.53,24.778-21,31-23.36,17.152-51.37,37.069-69,60l72,1c4.99-2.023,7.31-9.716,17-8,20.28,3.594,25.78,27.359,15,43-23.56,9.483-158.09,15.393-167-8-10.97-28.819,65.19-87.486,81-102-15.38.613-62.35,3.629-72-2-12.89-7.516-11.33-32.176,2-38Z"/>
    <path id="形狀_1" data-name="形狀 1" class="cls-6" d="M654,270c-0.1-86.22,110.185-99.179,113-177-6.3-4.5-10.737-9.32-14-17q0.5-3,1-6l6-5h21c7.34,3.812,2.975,9.567,8,15l57,34c80.885,47.715,150.048,57.4,190,149,12.32,28.253,37.49,81.1,19,119q30,31.5,60,63c36.04,45.122,71.93,92.94,117,129,48.38,38.709,118.47,91.654,144,151,19.02,44.223,26.83,132.474,8,183,56.12-18.449,129.04-26.669,189-40,144.32-32.086,252.61,29.057,303,115,16.87,28.78,23.16,61.73,31,100,8.35,40.75,6.61,97.9-3,136-43.89,173.97-154.18,293.37-292,374-49,28.67-105.99,40.24-169,56-131.6,32.92-344.37,60.39-498,28-78.4-16.53-177.385-35.9-197-108-11.223,6.11-23.4,13.18-37,17-60.069,16.86-133.1-6.69-160-40q-10-15.495-20-31c-119.463,91.63-327.995-60.8-260-199-30.023-14.95-64.177-17.74-92-34C104.681,1238.56-.024,1119.04,31,987c11.049-47.025,32.438-85.43,46-129L98,752q9.5-40.5,19-81c-21.456-4.466-39.392-21.055-51-36C5.841,557.547,40.494,466.908,64,381c6.788-24.807,6.416-64.3,20-84l8-1c14.148,9.559,23.762,23.563,42,29,22.372,6.67,50.2-3.631,75,1,43.265,8.08,90.335,24.682,121,47l72-37c51.516-22.506,107.154-34.979,167-50C595.137,279.44,624.576,271.946,654,270Zm22-3,92-5,61,5c63.608,12.662,111.321,31.208,156,61,17.61,11.74,39.37,23.362,52,40,0.67-.333,1.33-0.667,2-1,5.84-35.491-9.97-66.526-21-92-34.763-80.295-81.8-84.213-152-125l-79-45C778.258,175.462,677.928,196.064,676,267Zm66,25-36,2-93,13c-110.558,24.05-212.254,52.612-291,108-96.909,68.163-145.306,167.565-183,296q-15.5,74.993-31,150c-13.877,47.02-37.149,86.678-48,137-23.993,111.27,73.974,238.95,148,263-49.024-82.29-110.774-269.838,23-310,21.178-6.358,57.572-10.954,80-2,54.537,21.774,17.1,118.41,31,175,20.08,81.76,58.79,141.98,133,171,10.6,4.14,100.338-12.05,113-15l78-15c-113.972,2.07-214.483-32.27-260-100-16.759-24.94-34.722-65.93-22-108,32.008-105.858,175.728-239.392,282-272,44.412-13.627,135.91-20.368,192-11l64,6c92.81,18.59,155.79,35.154,185,119,10.53,30.23,13.27,76.59,3,110-22.4,72.87-84.16,123.96-143,161q-29,16.5-58,33,69.993-24,140-48,21.495-8.505,43-17l21-33c18.5-29.25,38.7-60.76,48-111,13.77-74.414-44.87-146.992-64-195-15.13-37.959-9.94-85.336,18-105,38.49-27.1,101.58-16.755,133,8,67.36,53.063,100.12,184.734,59,289l3-2c7.45-17.887,23.65-33.442,32-52,21.89-48.66,27.5-128.98,10-188-16.84-56.789-116.21-136-163-172-23.66-18.2-42.61-45.326-62-68-2.84-3.315-18-24-18-24-12.7-10.554-27.48-29.013-39-44-31.64-41.148-80.52-76.764-126-104l-40-17C883.018,307.506,822.372,293.66,742,292ZM97,330C74.769,432.342-.957,600.148,124,651l23-61c14.2-33.434,31.919-66.684,52-95,19.676-27.745,44.546-56.959,71-78,10.535-8.38,33.608-19.483,39-32-30.777-10.07-59.61-27.953-94-36H152C127.469,345.028,114.623,337.906,97,330ZM1173,699c-20.93,8.422-42.27,6.16-54,23-14.91,21.4-7.19,56.162,2,78,23.62,56.11,51.65,90.414,63,164,10.65,69.09-30.27,117.95-54,157,35.18-10.99,74.65-36.47,102-58q12.495-15,25-30c7.07-7.2,18.9-13.18,23-23,9.74-23.321,29.35-97.948,24-131C1291.01,798.745,1264.71,698,1173,699ZM763,802l-38,3c-26,4.531-49.972,7.975-71,17-91.708,39.362-170.133,115.234-220,197-36.274,59.48-26.324,120.45,24,159,60.388,46.26,188.442,74.87,297,51,130.091-28.6,309.12-126.39,332-259,3.55-20.574-2.67-41.99-7-56C1046.62,806.018,903.766,801.569,763,802Zm872,90-61,7c-33.5,9.155-65.1,34.791-82,61,143.13,30.946,247.11,141.17,312,252,11.72,20.01,20.83,44.55,28,68q3.495,15,7,30v-2c17.68-23.2,24.5-59.64,33-91,10.3-38.02,12.85-92.14,4-134C1849.92,959.658,1784.85,891.337,1635,892Zm-146,22-116,28c-29.33,72.9-89.06,125.5-152,165q-27.495,15-55,30c41.64-8.22,96.63-5.42,134-20,54-21.07,90.53-71.95,122-116,16.49-23.079,31.9-46.6,51-67C1476.35,930.424,1490.55,914.533,1489,914ZM267,966l-27,4c-22.491,5.638-42.3,16.56-53,34-44.731,72.91,17.421,241.72,63,274,20.852,14.77,135.519,25.8,179,20-13.529-14.42-32.529-23.41-45-39-31.929-39.92-55.374-86.61-66-148-6.689-38.65,11.07-82.41,2-120C314.642,968.79,295.36,965.732,267,966Zm1209,13q-40.995,53.49-82,107c33.56,15.48,62.76,56.1,84,85,51.57,70.15,90.5,148.89,119,243,12.08,39.9,23.64,94.9,14,144,75.02-41.69,133.77-101.33,182-170q12.495-18.495,25-37c13.52-36.44-28.27-117.29-40-137-51.43-86.44-120.86-164-216-206C1534.83,996.008,1503.95,989.048,1476,979Zm-98,122c-28.81,37.6-85.28,56.69-150,58q9,13.995,18,28,13.5,25.995,27,52c37.5,85.49,88.73,304.99,28,405,73.39-7.92,153.17-21.77,216-45,19.88-7.35,49.24-11.59,64-25,26.78-24.33,3.85-128.24-5-157C1537.26,1291.12,1470.41,1162.14,1378,1101Zm-184,62-44,6c-37,7.29-130.8,19.97-152,39,44.74,103.37,66.35,315.78,30,449,43.1,0.87,95.75,7.71,140,1l100-9c9.35-15.48,21.74-24.24,28-45,9.45-31.35,14.35-84.01,8-123-5.48-33.65-3.29-63.47-10-94-21.62-98.41-45.65-152.99-92-224h-8Zm-218,51q-15.5,4.995-31,10-30,15.495-60,31c-29.126,18.31-57.753,43.83-76,73-36.839,58.89-65.434,195.12-16,257,42.888,53.68,137.058,53.58,215,70-2.25-9.36,4.55-25.35,7-36q3.5-41.49,7-83v-95c-6.78-38.43-4.03-78.64-13-113l-15-66c-0.48-1.76-.783-2.88-2-1C986.765,1244.66,985.608,1226.06,976,1214ZM493,1364c-0.268,7.12-.1,14.67,2,19,25.741,10.41,39.047,32.82,57,51,35.914-17.18,75.253-45.74,132-26,8.671,3.02,19.287,4.02,22,13q-8,11.505-16,23c-10.01-3.74-19.481-8.86-32-11-40.22-6.88-107.029,23.39-101,59,10.768,63.6,120.5,87.87,176,49,2,1.33,4,2.67,6,4-10.064-87.65,9.565-179.59,45-236,12.4-19.75,31.16-33.2,45-51q-42.5,10.995-85,22-75.492,16.005-151,32c-80.166,18.12-199.159,17.35-296,9v1l4,3c-35.155,86.68,32.786,159.38,101,179,27.442,7.89,69.585,14.4,95-1,11.3-6.84,18.873-16.79,25-29,20.421-40.69-46.741-60.22-65-81C460.583,1378.53,474.579,1364,493,1364Z"/>
  </g>
</svg>
